<svg xmlns="http://www.w3.org/2000/svg" width="200" height="882" viewBox="0 0 200 882"><path d="M343.526,1026.843c-7.554-3.024-14.408-5.8-21.306-8.509-1.97-.775-5.366-1.058-5.917-2.112-3.757-7.2-6.905-14.54-10.306-21.825-1.372-2.94-2.886-5.85-4.334-8.774l-5,1.147c2.538,5.339,6.8,10.627,7.138,16.03.341,5.541-3.164,11.2-4.695,15.906-4.119-13.239-8.336-27.155-12.875-41.02a15.308,15.308,0,0,0-4.508-6.516c-16.609-14.4-21.443-30.462-20.14-48.883,2.1-29.647.936-59.406.921-89.119,0-7.021-6.388-3.492-13.35-2.229-.526-11.6-4.658-23.461-.7-33.86,6.117-16.08,7.266-32.014,7.722-48.287.536-19.27,1.333-38.547,2.932-57.784.365-4.4,4.836-8.588,6.71-13.015a17.1,17.1,0,0,0,.966-8.087c-1.93-23.092-3.822-46.185-6.147-69.259-2.634-26.119-6.454-52.195-8.254-78.338-.829-12.068,2.2-24.243,2.949-36.385a305.987,305.987,0,0,0,.606-30.656c-.853-22.2-2.521-44.382-3.333-66.58-.339-9.213,1.251-18.458.938-27.671-.977-28.873-3.107-57.734-3.529-86.608-.408-27.921.7-55.853,1.253-83.778.137-6.868,5.374-8.555,15.126-6.417,4.625,1.015,10.3-.048,15.459-.444,6.695-.513,8.395-3.676,8.43-7.838.006-1,1.837-1.982,3.715-3.858,1.7,2.61,3.272,4.4,4.035,6.343,1.485,3.777,4.832,7.329,10.149,5.73,3.021-.909,4.79-5.808,4.888-8.943.241-7.828-.795-15.672-1.32-23.546,15.278.417,7.168,12.107,17.567,15.591a54.738,54.738,0,0,0,.69-5.934c-.076-12.488,7.611-16.312,26.311-13.7,5.3.741,11.053-.147,16.577.025,1.288.04,2.491,1.358,3.757,2.1l8.872-4.555c.958,3.1,1.72,5.574,2.484,8.048l1.75-.078c.628-2.309,1.257-4.618,1.93-7.093l14.859-1.076V193.3l3.787.579,7.98-10.477c2.836,2.838,5.457,5.463,7.266,7.276,5.767-1.87,10.132-3.282,15.813-5.123,1.874,35.01,4.443,68.9,5.246,102.813.58,24.422-1.094,48.874-1.972,73.307q-.5,13.945-2.028,27.867c-.376,3.462,1.272,7.882-6.675,9.266-1.164.2-1.242,4.111-1.359,6.317-.925,17.434-1.49,34.876-2.64,52.3-2.215,33.561-6.108,67.1-6.679,100.671-.406,23.845,3.027,47.748,5.665,71.574,1.335,12.059,5.235,23.974,6.925,36.023.777,5.549-2.323,11.388-1.275,16.877,1.841,9.636.593,19.191,1,28.765.658,15.57,3.109,30.966-1.4,46.605-2.471,8.571-.441,17.76-.441,28.885-5.409-10.035-9.8-18.183-14.193-26.33l-2.721.379c.984,4.013,2.083,8.014,2.916,12.041a98.78,98.78,0,0,1,1.965,11.756q4.449,53.392,8.7,106.793c1.227,15.333,2.3,30.674,3.509,46.917-14.277-3.951-9.1,5.849-15.791,8.492-.647-3.507-1.159-6.281-1.926-10.431-2.9,2.859-4.931,4.864-7.518,7.413-2.189-1.825-4.08-3.4-6.46-5.381-11.934,10.747-13.81,22.63-12.751,35.332l-1.277-11.982-2.9.039c.415,5.76.7,11.528,1.272,17.281,1.034,10.329,2.376,20.642,3.2,30.978.1,1.211-2.23,2.541-3.526,3.769-1.2,1.136-3.917,2.516-3.574,3.264,2.873,6.262-3.568,7.525-9.9,8.8-4.8-5.109-4.951-5.1-15.667,1.037C353.245,1022.265,346.785,1022.733,343.526,1026.843Zm82.341-564.509V430.509C424.369,440.626,415.868,450.933,425.867,462.334Z" transform="translate(446.759 1026.988) rotate(180)" fill="#d1c9bc" opacity="0.3"/></svg>