<svg xmlns="http://www.w3.org/2000/svg" width="40" height="40" viewBox="0 0 40 40"><g transform="translate(-824 -1556)"><path d="M381.03,142.982a28.824,28.824,0,0,0-.516,2.938,10.226,10.226,0,0,0,.025,3.628c.62,2.011-.6,3.036-1.641,4.086-1.394,1.411-3,2.588-4.482,3.9-.523.463-.9,1.121-1.451,1.533a8.441,8.441,0,0,1-2.433,1.42c-1.268.39-2.249,1.667-3.845,1.2-.494-.143-1.206.7-1.86.992a12.513,12.513,0,0,1-9.9-.09c-2.486-.972-5.293-1.873-7.1-3.731-3.023-3.1-6.013-6.554-6.242-11.514-.048-1.038-.386-2.059-.493-3.1a10.494,10.494,0,0,1,1.041-5.634c.811-1.753,1.017-3.8,1.686-5.645a11.7,11.7,0,0,1,8.153-7.75,43.131,43.131,0,0,1,9.983-1.554,16.576,16.576,0,0,1,8.663,2.771c5.356,3.194,8.214,8.4,10.169,14.291a7.465,7.465,0,0,1,.03,2.22Z" transform="translate(482.97 1432.332)" fill="#bf954d"/><path d="M24,13.25a1.25,1.25,0,0,1-1.25,1.25H8.268l5.367,5.364a1.251,1.251,0,1,1-1.77,1.77l-7.5-7.5a1.25,1.25,0,0,1,0-1.77l7.5-7.5a1.251,1.251,0,1,1,1.77,1.77L8.268,12H22.749A1.25,1.25,0,0,1,24,13.25Z" transform="translate(830.001 1562.501)" fill="#fff" fill-rule="evenodd"/></g></svg>