<svg xmlns="http://www.w3.org/2000/svg" width="450.16" height="85.563" viewBox="0 0 450.16 85.563"><g transform="translate(-144.84 -65.438)"><path d="M547.471,659.292c.318-7.374.089-13.893,1.035-20.365.761-5.212,5.189-7.479,15.986-8.482,21.124-1.961,42.26-4.03,63.555-5.327,48.564-2.958,97.339-4.818,146.242-3.378,35.337,1.04,70.577,2.959,105.859,4.492,3.908.169,8.021.023,11.666.627,6.94,1.15,13.516,2.761,11.121,7.7-.242.5-.426,1.231.077,1.568,5.855,3.911,11.44,7.963,17.915,11.585,7.1,3.973,7.5,7.005.066,10.779-3.4,1.726-8.117,2.978-7.081,6.238.167.527-3.581,2-5.5,1.994-10.937-.057-17.8,3.578-21.679,7.789-4.568,4.96-11.246,8.343-19.692,11.105a18.936,18.936,0,0,1-6.705.6c-15.037-1.326-30.139-.4-45.195-.428q-40.488-.085-80.982.326c-14.263.148-28.505.809-42.757,1.247-19.553.6-39.12,1.108-58.654,1.849-11.99.455-23.939,1.235-35.89,1.943-5.114.3-9.025-.118-11.409-2.92-.818-.963-3.851-1.957-5.931-1.991a155.182,155.182,0,0,0-17.07.588c-8.42.8-15.527-.28-20.984-3.533-3.262-1.944-5.5-4.358-8.092-6.595-1.715-1.481-3.156-3.046-4.862-4.529-4.432-3.854-1.629-8.326,6.331-10.129,2.376-.538,4.551-1.319,6.945-1.827C544.165,659.718,546.7,659.415,547.471,659.292Z" transform="translate(-331.415 -540.244)" fill="#bf954d" opacity="0.2"/><path d="M26.719-4.277a2.68,2.68,0,0,0,.7.82.687.687,0,0,0,.088.645,1.2,1.2,0,0,1,.205.7,4.373,4.373,0,0,1,.469,1A3.445,3.445,0,0,0,28.828.352a5.412,5.412,0,0,0,.117,1.172A3.809,3.809,0,0,1,29,2.7a4.267,4.267,0,0,0-.5,1.348,1.867,1.867,0,0,1-.381.938,1.318,1.318,0,0,1-.234,1,2.075,2.075,0,0,0-.41.938q-.293.059-.41.527a1.183,1.183,0,0,0-.674.586,1.007,1.007,0,0,1-.732.527,8.822,8.822,0,0,1-.586.7,1.564,1.564,0,0,1-.41.293,4.211,4.211,0,0,1-.762.791,2.754,2.754,0,0,1-.586.264.684.684,0,0,1-.293.381.684.684,0,0,0-.293.381,2.6,2.6,0,0,1-.762.469.525.525,0,0,0-.352.352,7.5,7.5,0,0,0-.908.586q-.205.176-.439.41a.922.922,0,0,1-.352.234.23.23,0,0,0-.176.234.554.554,0,0,0-.586.469,3.572,3.572,0,0,1-.762.176q-.469.293-.645.41a1.046,1.046,0,0,0-.293.293q-.645.469-.645.41a1.5,1.5,0,0,1-.557.352,1.5,1.5,0,0,0-.557.352,4.641,4.641,0,0,0-.732.381,1.02,1.02,0,0,0-.322.381q-.762.176-.82.293a.377.377,0,0,1-.234.176,1.041,1.041,0,0,0-1.055.41.444.444,0,0,0-.352.029.906.906,0,0,1-.41.088q-.762.117-.879.117a1.148,1.148,0,0,1-.557.088.682.682,0,0,0-.5.146.859.859,0,0,0-.762,0,1.231,1.231,0,0,1-.469.088.408.408,0,0,0-.176-.029,2.486,2.486,0,0,0-.762,0,2.11,2.11,0,0,1-.7,0,4.568,4.568,0,0,1-.615-.205l-.146-.146a.439.439,0,0,1-.381.059q-.205-.059-.381-.117a2.137,2.137,0,0,0-.615-.029,1.313,1.313,0,0,1-.615-.088,2.465,2.465,0,0,1-1.113-.234,1.166,1.166,0,0,0-.7-.176,1.658,1.658,0,0,1-.82-.82q-.469-.059-.586-.088a.262.262,0,0,1-.176-.146A3.34,3.34,0,0,1-.762,15.234q-.059-.293-.088-.41A.518.518,0,0,0-1,14.59a.816.816,0,0,0-.352-.059.477.477,0,0,1-.352-.117q-.41-.527-.5-.674t.029-.205a3.771,3.771,0,0,1-.41-.645.45.45,0,0,0-.059-.176,1.613,1.613,0,0,1-.381-.586q-.029-.176-.088-.41a.7.7,0,0,1-.264-.352.7.7,0,0,0-.264-.352,2.611,2.611,0,0,1-.234-.645q0-.117-.117-.059.059-.645-.176-.7.117-.586.059-.615t-.059-.146q.176-.469.117-.586A.652.652,0,0,1-4.1,7.969,1.289,1.289,0,0,1-3.9,7.529a.429.429,0,0,0-.029-.5A.666.666,0,0,0-3.6,6.475,5.7,5.7,0,0,1-3.516,5.8a3.215,3.215,0,0,1,.41-.176.373.373,0,0,0,.234-.293,2.325,2.325,0,0,0-.029-.5q-.029-.088.088-.205a.978.978,0,0,1,.293-.41A.236.236,0,0,0-2.4,3.984q.293-.41.439-.586A4.121,4.121,0,0,0-1.7,3.047a4.829,4.829,0,0,0,.322-.557.368.368,0,0,1,.088-.146q.176-.176.352-.322t.293-.264A3.649,3.649,0,0,1-.176,1.2q.117-.088,0-.264A3.275,3.275,0,0,0,.5.469.309.309,0,0,1,.762.352a1.694,1.694,0,0,1,.527-.527,3.382,3.382,0,0,1,.469-.352A.188.188,0,0,0,1.875-.7q.7-.527,1.289-.937L3.4-1.875l.234-.234a2.4,2.4,0,0,0,.7-.469,1.765,1.765,0,0,0,.5-.293.294.294,0,0,1,.381-.059,3.4,3.4,0,0,1,.791-.557,2.806,2.806,0,0,0,.439-.146q.469-.176.527-.117a.682.682,0,0,0,.176.117q.41.469.176.645a.789.789,0,0,0-.293.527q-.7.234-.732.322a.267.267,0,0,1-.146.146q-1,.293-1.172.938A3.079,3.079,0,0,0,4.307-.7a.459.459,0,0,1-.088.117,1.31,1.31,0,0,0-.7.586q-.7.586-.908.791a1.462,1.462,0,0,1-.5.322q-.117.527-.352.645a3.125,3.125,0,0,1-.322.82,5.18,5.18,0,0,1-.5.7,2.069,2.069,0,0,1-.205.938A1.235,1.235,0,0,0,.645,5.1q-.293.586-.234.645a.239.239,0,0,1,.059.176A13.279,13.279,0,0,0,.322,7.383,1.263,1.263,0,0,0,.82,8.5q.059.7.234.762a1.52,1.52,0,0,0,.527.762q.234.527.352.762a.741.741,0,0,0,.41.352q-.059.469.088.5a.511.511,0,0,1,.264.146,4.2,4.2,0,0,0,1.055.908,2.728,2.728,0,0,0,.762.264,3.257,3.257,0,0,1,.7.557.444.444,0,0,0,.586.088A4.4,4.4,0,0,0,6.27,14,2.293,2.293,0,0,0,6.8,14.3a4.03,4.03,0,0,1,.879.117,2.274,2.274,0,0,0,.293.117,3.431,3.431,0,0,0,1.025.059.439.439,0,0,1,.381.059.767.767,0,0,1,.439,0,1.42,1.42,0,0,1,.205.176,3.4,3.4,0,0,1,.762-.029q.352.029.879.029a3.264,3.264,0,0,1,.7-.234,2.469,2.469,0,0,0,.41-.059q.527-.059.938-.117A3.5,3.5,0,0,0,15,14.063q.645-.41.732-.381a.267.267,0,0,0,.205-.029,8.894,8.894,0,0,0,.908-.527,3.2,3.2,0,0,0,.264-.234.589.589,0,0,0,.469-.088q.234-.146.469-.264a1.629,1.629,0,0,1,.41-.645.387.387,0,0,1,.41,0l.234-.234a.736.736,0,0,0,.176-.293,3.622,3.622,0,0,1,.586-.381q0,.029.117.029.352-.293.469-.381t.293-.205a3.943,3.943,0,0,0,1-.879q.41-.527.469-.586a5.479,5.479,0,0,0,.469-.557q0-.029.117-.146a3.02,3.02,0,0,0,.82-1.7.42.42,0,0,0,.234-.41.314.314,0,0,1,.234-.352.58.58,0,0,1,.029-.41,2.685,2.685,0,0,0,.146-.352.941.941,0,0,1,.029-.557.615.615,0,0,0,.088-.322q-.293-.469-.205-.586a1.027,1.027,0,0,0,.146-.293,1.841,1.841,0,0,0-.029-.293,2.135,2.135,0,0,1-.029-.352q-.176-.82-.176-.879a4.278,4.278,0,0,1-.117-.674A.364.364,0,0,0,23.848.82,1.026,1.026,0,0,1,23.789.5a.912.912,0,0,0-.117-.381q-.176-.41-.264-.586a2.685,2.685,0,0,1-.146-.352,2.168,2.168,0,0,1-.146-.527.938.938,0,0,0-.146-.41q-.234-.352-.293-.469A.383.383,0,0,0,22.5-2.4a1.279,1.279,0,0,0-.469-.762l-.234-.7a.736.736,0,0,0-.176-.293.735.735,0,0,1-.176-.293,2.274,2.274,0,0,0-.117-.293l-.352-.7q-.469-.527-.645-.7A.947.947,0,0,1,20.1-6.68a.756.756,0,0,0-.293-.264.5.5,0,0,1-.234-.381A3.081,3.081,0,0,0,19.1-7.91a2.6,2.6,0,0,0-.234-.469q-.117-.176-.293-.469t-.41-.645q-.293-.469-.381-.586a1.539,1.539,0,0,1-.146-.234q-.293-.293-.293-.381a.472.472,0,0,0-.059-.205,5.3,5.3,0,0,1-.469-.7q-.234-.469-.352-.5a.262.262,0,0,1-.176-.146,2.522,2.522,0,0,0-.176-.381,1.421,1.421,0,0,0-.176-.205q-.469-.82-.762-1.23a2.362,2.362,0,0,1-.205-.381.646.646,0,0,0-.322-.322,8.369,8.369,0,0,1-.5-.82.819.819,0,0,0-.439-.41q-.234-.527-.352-.82a.952.952,0,0,0-.41-.469,2.6,2.6,0,0,0-.176-.7,1.292,1.292,0,0,0-.469-.645q-.293-.586-.41-.879-.41-.645-.469-.7a.721.721,0,0,0-.293-.117,2.705,2.705,0,0,1-.205-.381.577.577,0,0,0-.146-.205q-.352-.527-.41-.527a.169.169,0,0,1-.117-.059,2.1,2.1,0,0,0-.41-.762,6.178,6.178,0,0,1-1-1.348,3.534,3.534,0,0,0-.7-.732.384.384,0,0,1-.176-.381.894.894,0,0,1-.322-.439.628.628,0,0,0-.322-.381q-.234-.762-.41-.762a1.289,1.289,0,0,0-.234-.527L6.328-27.3a3.079,3.079,0,0,1-.293-.469,1.163,1.163,0,0,0-.352-.41q.059-.234-.059-.322t-.059-.381a2.2,2.2,0,0,0-.234-.205q-.117-.088-.293-.205a1.268,1.268,0,0,0,.029-.469Q5.039-30,4.746-30a5.123,5.123,0,0,0-.029-.791A.267.267,0,0,1,4.746-31q-.234-1.172-.352-1.7a2.952,2.952,0,0,1,0-1.172,1.371,1.371,0,0,0,.088-.527.963.963,0,0,1-.029-.234.525.525,0,0,1,.088-.264.388.388,0,0,0-.029-.381l.146-.586a.142.142,0,0,0-.088-.176,1.484,1.484,0,0,1,.352-.937q.059-.41.088-.527a.138.138,0,0,1,.146-.117,3.963,3.963,0,0,1,.762-1.465,3.741,3.741,0,0,1,.352-.674.5.5,0,0,1,.41-.146,1.561,1.561,0,0,1,.352-.527,2.724,2.724,0,0,0,.41-.527,1.417,1.417,0,0,0,.762-.82q.293,0,.381-.146a.756.756,0,0,1,.322-.264q.234-.527.527-.527.41-.293.41-.381t.117-.146a4.677,4.677,0,0,0,.5-.293,3.029,3.029,0,0,1,.557-.293l.645-.293a.741.741,0,0,0,.41-.352q.117-.234.527-.117a2.49,2.49,0,0,1,.645-.41,1.621,1.621,0,0,1,.586-.264,1.671,1.671,0,0,0,.645-.322q.7-.176.7-.293a.239.239,0,0,1,.059-.176q.352-.059.674-.117a1.822,1.822,0,0,0,.615-.234h.5a.912.912,0,0,0,.381-.117q.41.059.469-.029a1.42,1.42,0,0,1,.176-.205.387.387,0,0,0,.352.059.735.735,0,0,0,.293-.176q.586.117.645-.117a2.569,2.569,0,0,1,1.348,0,2,2,0,0,1,.85.088q.088.088.322.029a1.031,1.031,0,0,0,.557.293q.322.059.615.117a1.655,1.655,0,0,1,.586.264.637.637,0,0,0,.527.088,2.04,2.04,0,0,0,.41.41,1.052,1.052,0,0,0,.645.176.441.441,0,0,0,.352.264A.321.321,0,0,1,25.84-45q.586.352.674.41a.264.264,0,0,1,.088.234,2.03,2.03,0,0,0,1,.938,1.242,1.242,0,0,0,.352.557,1.242,1.242,0,0,1,.352.557.629.629,0,0,1,.322.381q.088.264.205.557a2.608,2.608,0,0,1,.439.732q.146.381.322.732a2.15,2.15,0,0,0,.322.645.442.442,0,0,1,.146.176,2.558,2.558,0,0,0-.088.7.963.963,0,0,1,.029.234,3.179,3.179,0,0,0-.264.762.938.938,0,0,1-.146.41,3.306,3.306,0,0,0-.234.85q0,.205-.176.205l-.117.762q-.586.762-.82.82l-.469.7a2.328,2.328,0,0,1-.293.352l-.264.264a1.452,1.452,0,0,0-.264.381q-.527.41-.586.469t-.234,0a.78.78,0,0,0-.176.264.591.591,0,0,1-.234.264.2.2,0,0,1-.029.293A1.034,1.034,0,0,0,25.43-31q-.41.234-.381.322t-.088.205h-.645a.723.723,0,0,0-.41.176.661.661,0,0,0-.469-.059.493.493,0,0,1-.41-.059q.117-.41-.029-.527a1.034,1.034,0,0,1-.264-.352A.424.424,0,0,0,23-31.582a.424.424,0,0,1,.264-.293,2.958,2.958,0,0,1,.352-.7,2.4,2.4,0,0,0,.879-.615,1,1,0,0,1,.469-.381,2.607,2.607,0,0,1,.41-.879,2.945,2.945,0,0,1,.381-.762.442.442,0,0,0,.146-.176q0-.527.088-.586a.2.2,0,0,0,.088-.176,2.207,2.207,0,0,1-.176-.879.945.945,0,0,0,.117-.586,1.3,1.3,0,0,1-.059-.41.477.477,0,0,1-.264-.41,1.034,1.034,0,0,0-.205-.527,1.384,1.384,0,0,0-.117-.762l-.234-.234q-.352-.937-.674-1.025a.533.533,0,0,1-.381-.5,1.453,1.453,0,0,1-.586-.41,4.634,4.634,0,0,0-.762-.732q-.234-.146-.469-.322-.527-.176-.586-.205a.317.317,0,0,1-.117-.146,1.356,1.356,0,0,1-.674-.088.782.782,0,0,0-.205-.146,5.657,5.657,0,0,1-.674-.088q-.088-.029-.088.088-.527-.41-.557-.352t-.146.059a.986.986,0,0,0-.82-.117q-.41-.059-.469,0a.239.239,0,0,1-.176.059,3.776,3.776,0,0,1-.469-.029.807.807,0,0,0-.469.088.948.948,0,0,0-.762.117,1.212,1.212,0,0,0-.469.117.239.239,0,0,1-.176.059q-.586.176-.615.264a.267.267,0,0,1-.146.146,5.161,5.161,0,0,0-.879.117.23.23,0,0,0-.176.234.84.84,0,0,0-.439.205.69.69,0,0,1-.5.146q-.176.117-.322.234a.984.984,0,0,1-.381.176q-.586.527-.615.381t-.322-.029q-.586.293-.645.527a1.242,1.242,0,0,0-.469.527,1.242,1.242,0,0,1-.469.527,4.553,4.553,0,0,0-.322.439.468.468,0,0,1-.264.205.4.4,0,0,1-.029.439.429.429,0,0,0,.029.5,3.171,3.171,0,0,1-.557.557.267.267,0,0,0-.146.146,7.928,7.928,0,0,0,.176.82,2.273,2.273,0,0,0,.117.293,3.805,3.805,0,0,1-.352,1.289q.117.234.176.381a1.249,1.249,0,0,1,.059.439,3.111,3.111,0,0,1-.029.439.743.743,0,0,0,.088.439,2.775,2.775,0,0,0,.41.762,1.962,1.962,0,0,1,.146,1,.715.715,0,0,0,.029.527.7.7,0,0,0,.469.469.3.3,0,0,0,.088.322,1.078,1.078,0,0,1,.205.264,1.975,1.975,0,0,1,.352.527.565.565,0,0,0,.234.293.444.444,0,0,0,.059.41,1.92,1.92,0,0,0,.293.234,2.31,2.31,0,0,0,.176.645,3.621,3.621,0,0,1,.5.615,1.175,1.175,0,0,0,.439.439.475.475,0,0,0,.088.293.583.583,0,0,1,.088.352,3.02,3.02,0,0,1,.322.381q.146.205.322.439.293.293.293.41a.52.52,0,0,0,.059.234,1.347,1.347,0,0,0,.469.469,1.3,1.3,0,0,0,.41.762q.117.117.293.264t.352.322a.735.735,0,0,1,.176.293.352.352,0,0,0,.234.234.42.42,0,0,0,.059.469q.176.234.293.41a4.292,4.292,0,0,1,.645,1.582,1.28,1.28,0,0,0,.264.293.619.619,0,0,1,.205.293,1.939,1.939,0,0,0,.439.557.468.468,0,0,1,.205.264,2.555,2.555,0,0,0,.586.615,1.279,1.279,0,0,1,.41.439,2.061,2.061,0,0,0,.469.7q.059.645.205.645a.286.286,0,0,1,.205.059,2.208,2.208,0,0,0,.264.469q.029,0,.088.117a1.362,1.362,0,0,1,.205.264.468.468,0,0,0,.264.205q.352.527.41.586a1.478,1.478,0,0,0,.264.527.2.2,0,0,1,.088.176,6.213,6.213,0,0,1,.586.908.98.98,0,0,0,.41.439q.234.762.352.7a5.763,5.763,0,0,0,.381.82,1.515,1.515,0,0,0,.381.41,3.243,3.243,0,0,1,.5.732.8.8,0,0,0,.5.439q.527.938.7,1.2a1.7,1.7,0,0,1,.234.732,1.92,1.92,0,0,0,.293.234l.352.234q.176.527.293.791a5.173,5.173,0,0,0,.293.557,7.212,7.212,0,0,1,.381.674q.029.088.205.146ZM58.3-50.156a3.94,3.94,0,0,1-.176.645,2.274,2.274,0,0,0-.117.293,1.574,1.574,0,0,0-.5.234.834.834,0,0,1-.146.176,2.569,2.569,0,0,1-.5.5,1.608,1.608,0,0,0-.205.088,5.367,5.367,0,0,1-1.523.938,6.169,6.169,0,0,1-1.7-.645.631.631,0,0,1-.586-.059,1.612,1.612,0,0,1-.469-.41q-.7.176-.762.117a.682.682,0,0,0-.176-.117,2.129,2.129,0,0,1-.674.117H49.98a3.109,3.109,0,0,0-1.23.41,1.489,1.489,0,0,1-.762.293,2.922,2.922,0,0,0-.557.322.708.708,0,0,1-.322.146,3.02,3.02,0,0,0-.322.381,1.758,1.758,0,0,1-.381.381q-.41.352-.439.469a.138.138,0,0,1-.146.117,3.6,3.6,0,0,0-.381.645.138.138,0,0,1-.146.117,1.254,1.254,0,0,0-.264.439.18.18,0,0,1-.205.146q.059.293-.088.381t-.146.381a3.477,3.477,0,0,1-1.23,1.406,2.309,2.309,0,0,1-.352.732.454.454,0,0,0-.059.5,2.556,2.556,0,0,1-.381.586.2.2,0,0,0-.088.176,1.429,1.429,0,0,1-.117.527.682.682,0,0,0-.117.176q-.234.645-.293.791a.356.356,0,0,1-.234.205,1.669,1.669,0,0,1-.293,1,.944.944,0,0,0-.117.41,1.86,1.86,0,0,1-.117.527,1.933,1.933,0,0,0-.117.322q-.059.205-.117.381a3.048,3.048,0,0,1-.117.791.193.193,0,0,0,0,.205.525.525,0,0,0-.146.293.525.525,0,0,1-.146.293,1.505,1.505,0,0,1-.176.557q-.059.029-.059.146-.176.7-.264.7a.2.2,0,0,0-.146.059,4.328,4.328,0,0,0-.176,1.113,1.646,1.646,0,0,0,.029.322,1.217,1.217,0,0,1-.029.439,3.738,3.738,0,0,0-.293.85q0,.146-.117.146a.677.677,0,0,1-.117.645,2.066,2.066,0,0,0,0,.7,1.926,1.926,0,0,1,.059.469,4.563,4.563,0,0,0-.293,1.025.435.435,0,0,1-.117.322,1.784,1.784,0,0,1,0,.645.789.789,0,0,1-.293.527v1.055a1.619,1.619,0,0,1-.146.322q-.088.146-.205.322.176.7-.059.938a1.148,1.148,0,0,1,.088.557,2.267,2.267,0,0,0,.029.615q-.293.352-.234.439a.479.479,0,0,1,.059.264.418.418,0,0,1-.059.381.984.984,0,0,0-.176.381,2.422,2.422,0,0,0,.029.322,3.111,3.111,0,0,1,.029.439,2.135,2.135,0,0,1-.029.352.473.473,0,0,0,.029.293q-.117.645-.176,1.055a1.593,1.593,0,0,0,.059.439.633.633,0,0,1,0,.381.52.52,0,0,1-.059.234,1.006,1.006,0,0,0-.059.41,1.655,1.655,0,0,0-.029.527.637.637,0,0,1-.029.352q-.117.469-.146.674t.088.264q.059.527-.088.645t.029.645q-.293.527-.176.586a.383.383,0,0,1,.176.176q.469-.176.5-.293a.262.262,0,0,1,.146-.176,7.8,7.8,0,0,0,.293-.82q.234-.586.41-.674a.384.384,0,0,0,.176-.381l.234-.234a1.92,1.92,0,0,0,.234-.293,1.018,1.018,0,0,0,.205-.322.388.388,0,0,0,.029-.322q.293,0,.293-.264t.234-.264a.456.456,0,0,1,.176-.41.609.609,0,0,0,.234-.41.964.964,0,0,0,.469-.645q.41-.586.469-.674a.264.264,0,0,1,.234-.088,1.757,1.757,0,0,1,.322-.352,1.3,1.3,0,0,0,.322-.41q.41-.176.439-.264a.267.267,0,0,1,.146-.146,2.2,2.2,0,0,1,.234-.205q.117-.088.293-.205.586-.352.557-.41a.1.1,0,0,1,.029-.117q.293-.176.469-.293A1.479,1.479,0,0,1,45-21.445a1.336,1.336,0,0,0,.7-.469q.117-.234.527-.234.586-.234.762-.322a.58.58,0,0,1,.41-.029q.645.176.85.234a.777.777,0,0,0,.5-.059,4.4,4.4,0,0,0,.645.322l.352.088q.117.7.234.732a.262.262,0,0,1,.176.146q-.117.527.146.732a.685.685,0,0,1,.205.674l.176.645a1.911,1.911,0,0,1,.293.85q.059.5.117.967a4.653,4.653,0,0,1,.352.967,1.337,1.337,0,0,0,.176.5,1.907,1.907,0,0,0,.146.791,5.28,5.28,0,0,1,.264.732,2.847,2.847,0,0,0,.205.85.628.628,0,0,1,.029.557,9.842,9.842,0,0,0,.41,1.348,3.041,3.041,0,0,0,.117.381.86.86,0,0,1,.059.322.819.819,0,0,0,.029.527.3.3,0,0,1,.029.293q.41.586.322.674t.205.205a1.182,1.182,0,0,0-.059.645,7.774,7.774,0,0,1,.41.732,1.483,1.483,0,0,1,.059.5q.117.527.146.615t.205.146a4.4,4.4,0,0,1,.029.82.535.535,0,0,0,.029.293,1.619,1.619,0,0,0,.146.322.872.872,0,0,1,.088.439q0,.234,0,.469a.494.494,0,0,0,.293.41q-.059.469.059.527a.188.188,0,0,1,.117.176q.059.645.146.674a.267.267,0,0,1,.146.146.609.609,0,0,0,.059.469.959.959,0,0,1,.117.527.424.424,0,0,1,.176.381,1.1,1.1,0,0,0,.117.5A2.36,2.36,0,0,1,55.928.5.267.267,0,0,0,55.957.7a3.029,3.029,0,0,0,.293.557.717.717,0,0,1,.117.557.9.9,0,0,1,.146.352,1.5,1.5,0,0,0,.146.41q.117.293.205.557t.205.557q.117.234.176.381a1.8,1.8,0,0,0,.176.322q.293.7.352.908a.523.523,0,0,0,.293.322,6.327,6.327,0,0,1,.557.7.887.887,0,0,0,.439.352q.352.469.41.557t.117-.029a1.505,1.505,0,0,0,.557.439,1.093,1.093,0,0,1,.5.439q.527.176.557.264a.267.267,0,0,0,.146.146q.586.059.645.176a.236.236,0,0,0,.234.117l.938.234a1.693,1.693,0,0,1,.615.059.361.361,0,0,0,.205.059,2.053,2.053,0,0,0,.645-.117,1.251,1.251,0,0,1,.645-.059l1.055-.527a.3.3,0,0,0,.205-.264q.029-.205.322-.146a4.1,4.1,0,0,1,.791-.615.643.643,0,0,1,.5.029,5.484,5.484,0,0,1,.352.7,1.417,1.417,0,0,1-.645.293q-.293.352-.234.469a.191.191,0,0,1-.059.234,2.977,2.977,0,0,0-1,.205,2.017,2.017,0,0,0-.527.381l-.7.176a1.25,1.25,0,0,1-.615.322.976.976,0,0,0-.439.146,6.48,6.48,0,0,0-.937.41l-.352.234a5.045,5.045,0,0,0-.557.029.457.457,0,0,0-.381.264,7.036,7.036,0,0,0-.732.029,1.392,1.392,0,0,0-.557.205.773.773,0,0,0-.82,0,2.361,2.361,0,0,1-.7-.234.972.972,0,0,1-.879-.176q-.527-.352-.527-.205t-.176.088a.743.743,0,0,0-.352-.176.376.376,0,0,1-.293-.293,3.582,3.582,0,0,1-.469-.264.309.309,0,0,1-.117-.264,1.29,1.29,0,0,0-.7-.293q.059-.293-.205-.293a.523.523,0,0,1-.381-.117q-.117-.234-.264-.469a3.319,3.319,0,0,1-.264-.527q-.234-.352-.381-.381t-.088-.264a3.4,3.4,0,0,1-.557-.791.511.511,0,0,0-.146-.264,1.043,1.043,0,0,0-.205-.469q-.088-.059-.029-.176-.293-.469-.205-.5t.088-.205a1.326,1.326,0,0,1-.469-.469,1.006,1.006,0,0,0-.059-.41.7.7,0,0,1,0-.41q-.586-.586-.293-.879a.909.909,0,0,0-.527-.469q.117-.234-.029-.352a.2.2,0,0,1-.029-.293,1.293,1.293,0,0,1-.176-.439A3.621,3.621,0,0,0,51.328,1a1.619,1.619,0,0,0-.146-.322,1.619,1.619,0,0,1-.146-.322q.117-.645,0-.645a.188.188,0,0,1-.176-.117,4.321,4.321,0,0,0-.322-1.172,1.087,1.087,0,0,1-.088-.7,2.088,2.088,0,0,1-.205-.879.55.55,0,0,0-.146-.469,2.842,2.842,0,0,1-.146-.645q.029,0,.029-.059-.176-.469-.205-.557a3.047,3.047,0,0,0-.146-.322,2.279,2.279,0,0,1-.176-.645,2.3,2.3,0,0,1-.234-.7.652.652,0,0,0-.059-.293q-.117-.176-.205-.322a.388.388,0,0,1,.029-.381,1.832,1.832,0,0,1-.322-1,1.543,1.543,0,0,0-.322-.937.621.621,0,0,0,0-.527,2.091,2.091,0,0,1-.176-.527,3.01,3.01,0,0,0-.176-.937,2.6,2.6,0,0,0-.352-.82,3.6,3.6,0,0,0-.029-.5.551.551,0,0,0-.146-.322,3.3,3.3,0,0,0-.117-1,3.04,3.04,0,0,1-.088-.762.331.331,0,0,0-.029-.234,2.39,2.39,0,0,0-.322-.908,1.3,1.3,0,0,1-.264-.439,1.04,1.04,0,0,1-.117-.469.394.394,0,0,0-.176-.352,2.438,2.438,0,0,0-.176-.5A1.42,1.42,0,0,0,46-17.988a3.077,3.077,0,0,0-.176-.674,1.42,1.42,0,0,0-.176-.205q-.7-.41-.908-.205a.952.952,0,0,1-.5.264,1.3,1.3,0,0,1-.264.439,2.108,2.108,0,0,1-.322.264,1.9,1.9,0,0,1-.146.469,1.056,1.056,0,0,0-.088.469.667.667,0,0,0-.469.82,3.284,3.284,0,0,0-.439.41.411.411,0,0,0-.029.352,1.362,1.362,0,0,1-.264.205,1.362,1.362,0,0,0-.264.205,2.544,2.544,0,0,0-.381.7,1.5,1.5,0,0,1-.146.41,1.978,1.978,0,0,1-.381.85q-.146.088-.146.381a7.19,7.19,0,0,0-.234.7,2.161,2.161,0,0,1-.234.381,2.161,2.161,0,0,0-.234.381,2.352,2.352,0,0,0-.205.879.432.432,0,0,1-.205.41q-.059.293-.117.527a4.155,4.155,0,0,1-.176.527q-.117.469-.176.645a2.642,2.642,0,0,1-.205.557.284.284,0,0,0,.029.322.294.294,0,0,0-.146.234.9.9,0,0,1-.146.352,1.781,1.781,0,0,1-.234.557.317.317,0,0,0-.117.146,3.231,3.231,0,0,0-.117.645.63.63,0,0,1-.117.352,1.133,1.133,0,0,0-.088.5.168.168,0,0,1-.088.205,6.814,6.814,0,0,0,.029.791,2.7,2.7,0,0,1,.029.381v.322a.357.357,0,0,0,.234.322q0,.469-.117.557a.525.525,0,0,0-.176.264.609.609,0,0,0-.41.234q-.117.176-.527.117a.952.952,0,0,0-.41.469.708.708,0,0,1-.41.41,2.149,2.149,0,0,0-.645.82q-.586,0-.557.176t-.088.176a.232.232,0,0,1-.293.029.33.33,0,0,0-.352.029,3.565,3.565,0,0,0-.41-.527.836.836,0,0,1,.029-.5,1.263,1.263,0,0,0,.088-.5,2.3,2.3,0,0,1-.146-.791,3.111,3.111,0,0,0,.029-.439A1.57,1.57,0,0,1,33.9-2.7a.408.408,0,0,0,.029-.176,2.623,2.623,0,0,0-.146-.7.659.659,0,0,1,.088-.7,3.216,3.216,0,0,1-.059-1,.54.54,0,0,0-.117-.469q0-.645-.029-1.172t-.029-.469a3.442,3.442,0,0,1,.059-.791,1.593,1.593,0,0,0,.059-.439,2.607,2.607,0,0,0,.059-.5.673.673,0,0,1,.117-.381,3.423,3.423,0,0,1-.117-1.025q0-.674-.059-1.436a4.5,4.5,0,0,1,0-1.025,2.306,2.306,0,0,0-.059-.908.358.358,0,0,0,.088-.322,2.7,2.7,0,0,1-.029-.381,5.161,5.161,0,0,1,.117-.732,1.257,1.257,0,0,0,.059-.322q0-.234-.029-.527a.94.94,0,0,1,.146-.586.932.932,0,0,1-.059-.557q.059-.264.117-.557a4.736,4.736,0,0,1,.205-1.26,1.056,1.056,0,0,0,.029-.732q.117-.762.205-1.084a5.678,5.678,0,0,1,.205-.615.65.65,0,0,1-.088-.557,4.632,4.632,0,0,0,.146-.557q.059-.586.059-.791a1.817,1.817,0,0,1,.059-.439,2.285,2.285,0,0,0,.234-1.348q.293-.469.264-.586a.331.331,0,0,1,.029-.234,4.259,4.259,0,0,0,.176-1.23q.059-.645.176-.7-.117-.41-.029-.5a.782.782,0,0,0,.146-.205,1.873,1.873,0,0,0,.146-.7.473.473,0,0,1,.029-.293,1.286,1.286,0,0,0,.146-.615.53.53,0,0,1,.088-.381.994.994,0,0,0,.088-.439.448.448,0,0,1,.029-.264,3.757,3.757,0,0,1,.234-.82,2.275,2.275,0,0,1,.234-.674.317.317,0,0,0,.117-.146.726.726,0,0,1,.088-.557.6.6,0,0,0,.029-.557q.234-.293.352-.469a1.479,1.479,0,0,0,.176-.352.551.551,0,0,0,.146-.322.551.551,0,0,1,.146-.322,6.332,6.332,0,0,0,.117-.82.23.23,0,0,1,.176-.234,2.641,2.641,0,0,1,.176-.557,1.061,1.061,0,0,0,.059-.615,2.068,2.068,0,0,1,.527-.7,4.6,4.6,0,0,1,.264-.908.871.871,0,0,0,.088-.439,3.811,3.811,0,0,1,.674-.908.644.644,0,0,0,.205-.557,3.351,3.351,0,0,0,.7-1,4.121,4.121,0,0,1,.41-.586l.234-.234a3.594,3.594,0,0,1,.557-1.055,2.53,2.53,0,0,0,.439-.7,3.889,3.889,0,0,0,.645-.82,2.753,2.753,0,0,0,1.113-1.289,4.08,4.08,0,0,0,.615-.352,1.778,1.778,0,0,1,.439-.234,5.961,5.961,0,0,0,.439-.469.38.38,0,0,1,.322-.117l.527-.41q.41-.527.469-.5a.1.1,0,0,0,.117-.029,1.778,1.778,0,0,1,.381-.264q.264-.146.439-.264a3.878,3.878,0,0,0,.527-.176.383.383,0,0,0,.176-.176q.293.059.352-.088t.293-.146q.7-.41.879-.352a1.524,1.524,0,0,0,.469.059,4.138,4.138,0,0,0,.762-.293.5.5,0,0,0,.322-.117,2.161,2.161,0,0,1,.381-.234,1.452,1.452,0,0,1,.439-.146,1.452,1.452,0,0,0,.439-.146,1.9,1.9,0,0,1,.469.146q.176.088.352-.205a2.668,2.668,0,0,0,.967.059.837.837,0,0,1,.791.293q1.113.352,1.23.586a1.707,1.707,0,0,1,.762.146Q58.008-50.332,58.3-50.156ZM76.055-17.578a3.363,3.363,0,0,0-.088.762A.26.26,0,0,1,76-16.7a2.657,2.657,0,0,0-.029.645.721.721,0,0,1-.029.352,1.078,1.078,0,0,1-.205.264.3.3,0,0,0-.029.381q-.352.469-.234.527t.117.117a2.654,2.654,0,0,1,0,.82.964.964,0,0,0-.059.293,1.743,1.743,0,0,1-.117.879,1.413,1.413,0,0,1-.029.645.439.439,0,0,0,.088.469,4.073,4.073,0,0,1,.029.791.43.43,0,0,0,.088.322,1.87,1.87,0,0,0-.176.82,3.183,3.183,0,0,1,.234.908.816.816,0,0,0,.176.5,1.379,1.379,0,0,0-.059.879,5.831,5.831,0,0,1,.176.879q-.059.645,0,.674T76-5.391a1.8,1.8,0,0,1,.117.674,1,1,0,0,0,.176.615q0,.82.41,1-.059.41.059.469a.188.188,0,0,1,.117.176.352.352,0,0,0,.059.439q.176.146,0,.322a1.447,1.447,0,0,0,.469.146.469.469,0,0,1,.352.205,1.5,1.5,0,0,1,.615.117.578.578,0,0,0,.557-.059,1.268,1.268,0,0,0,.586-.469,1.271,1.271,0,0,0,.615-.117q.205-.117.439-.234a.666.666,0,0,1,.293-.264,1.233,1.233,0,0,1,.293-.029,3.831,3.831,0,0,1-.234.41.608.608,0,0,0,0,.527,4.866,4.866,0,0,0-.557.264,1.185,1.185,0,0,0-.439.439q-.586.469-.7.586a.477.477,0,0,1-.352.117q-.586.527-.586.762A.911.911,0,0,1,77.9.85.551.551,0,0,0,77.578,1q-.352.41-.439.41t-.146.176a4.342,4.342,0,0,1-1.084.146,5.045,5.045,0,0,0-.557-.029,1.392,1.392,0,0,1-.762-.322.268.268,0,0,0-.41-.029A.473.473,0,0,0,73.594,1a2.559,2.559,0,0,1-.381-.557.646.646,0,0,0-.322-.322.731.731,0,0,1-.059-.322.731.731,0,0,0-.059-.322,3.194,3.194,0,0,1-.146-.381.878.878,0,0,1-.029-.5q-.352-1-.5-1.406a1.143,1.143,0,0,1-.029-.762,5.951,5.951,0,0,0-.176-.615.672.672,0,0,1-.059-.205,4.858,4.858,0,0,0-.029-.586,4.858,4.858,0,0,1-.029-.586,3.108,3.108,0,0,0-.029-1.025,1.749,1.749,0,0,1-.088-.557,3.232,3.232,0,0,0,.029-.7.408.408,0,0,1-.029-.176,1.611,1.611,0,0,0,0-.645.52.52,0,0,1-.059-.234,4.388,4.388,0,0,0-.791.5,2.108,2.108,0,0,0-.264.322.719.719,0,0,1-.293.439,1.115,1.115,0,0,0-.293.205q-.352.293-.381.469a.525.525,0,0,1-.146.293,3.638,3.638,0,0,0-.439.322q-.088.088-.029.322a.885.885,0,0,0-.352.293.857.857,0,0,1-.41.293,5.579,5.579,0,0,1-.586.7,1.766,1.766,0,0,1-.5.381.646.646,0,0,0-.322.322,1.615,1.615,0,0,0-.557.469.756.756,0,0,1-.264.293,2.556,2.556,0,0,0-.586.381q-.059.088-.176.029-.762.645-.762.82a1.685,1.685,0,0,0-.7.41q-.117.176-.469.117a1.734,1.734,0,0,1-1.172.264,5.782,5.782,0,0,1-.937-.205l-.352-.176a1.816,1.816,0,0,0-.352-.117,1.757,1.757,0,0,1-.645-.5.783.783,0,0,0-.41-.322.484.484,0,0,0,0-.557l-.293-.439a.817.817,0,0,0,0-.439Q59.063-4.16,59-4.277a2.053,2.053,0,0,1,0-.762.169.169,0,0,0,.059-.117A1.593,1.593,0,0,0,59-5.6a.838.838,0,0,1,0-.439,2.439,2.439,0,0,0,.205-.937A.946.946,0,0,1,59.3-7.5a.709.709,0,0,0,.146-.439.4.4,0,0,1,.029-.264,1.827,1.827,0,0,0,.293-.586q.117-.645.176-.645a.871.871,0,0,1,.264-.5q.146-.088.029-.322a3.026,3.026,0,0,0,.264-.527,1.145,1.145,0,0,1,.088-.234.524.524,0,0,0,.352-.293.621.621,0,0,0,0-.527q.527-.234.527-.439a.673.673,0,0,1,.117-.381q.41-.293.762-.5a.776.776,0,0,0,.352-.732,1.885,1.885,0,0,1,.557-.5.479.479,0,0,0,.264-.381,1.28,1.28,0,0,0,.293-.264,3.2,3.2,0,0,1,.234-.264q.293-.293.293-.352t.117-.176a4.689,4.689,0,0,0,.762-.469q.41-.469.527-.586a.743.743,0,0,1,.352-.176,4.477,4.477,0,0,1,.938-.645,1.624,1.624,0,0,1,.381-.146.43.43,0,0,0,.264-.205q.527-.117.938-.234a2.1,2.1,0,0,1,1.23-.322,3.271,3.271,0,0,0,1,.029,3.622,3.622,0,0,1,.732.352,1.537,1.537,0,0,0,.264.176,1.722,1.722,0,0,0,.41-.059.493.493,0,0,1,.41.059,2.8,2.8,0,0,0,.674.469.321.321,0,0,1,.205.117q.7.352,1.055.117t.645-.41a1.14,1.14,0,0,0,.439.029A.436.436,0,0,1,76.055-17.578ZM68.848-15a.465.465,0,0,1-.381-.117.581.581,0,0,0-.205-.176,1.3,1.3,0,0,0-.879.059,1.812,1.812,0,0,1-.82.176,3.32,3.32,0,0,0-.586.586,6.727,6.727,0,0,1-.527.645.4.4,0,0,0-.059.469q-.7.293-.7.7a.506.506,0,0,1-.41.527,2.091,2.091,0,0,1-.176.527,2.091,2.091,0,0,0-.176.527,3.083,3.083,0,0,0-.146.762.208.208,0,0,1-.029.176,3.319,3.319,0,0,1-.264.527.357.357,0,0,0-.029.41q-.176.645-.234.879a4.155,4.155,0,0,1-.176.527,7.937,7.937,0,0,1,.059.82,2.675,2.675,0,0,0,.088.645,2.675,2.675,0,0,1,.088.645,4.552,4.552,0,0,0,.5.469q.029,0,.029.059a4.438,4.438,0,0,1,.908.176,3.44,3.44,0,0,0,.322.176,3.081,3.081,0,0,1,.586-.469.984.984,0,0,0,.41-.645,6.048,6.048,0,0,0,.732-.732.959.959,0,0,1,.439-.322l.586-.762a1.621,1.621,0,0,0,.557-.586q.088-.234.205-.645.293-.234.381-.322t.029-.322a3.272,3.272,0,0,1,.264-.439.834.834,0,0,0,.146-.5.643.643,0,0,0,.381-.322.369.369,0,0,1,.381-.205q.059-.586.176-.674a.583.583,0,0,1,.352-.088,5.317,5.317,0,0,1,.234-.937l.234-.586a1.348,1.348,0,0,1-.41-.7,4.829,4.829,0,0,0-.557-.322.267.267,0,0,1-.146-.146q-.234-.117-.439-.205a2.9,2.9,0,0,0-.439-.146Zm17.4-13.184a1.562,1.562,0,0,1,.029-.352,1.081,1.081,0,0,0-.029-.41l.264-.527a.686.686,0,0,0,.029-.586q.234-.41.322-.527a2.2,2.2,0,0,1,.205-.234,3.826,3.826,0,0,1,.176-.586l.117-.234a9.172,9.172,0,0,1,.41-.967.871.871,0,0,0,.117-.439l.352-.586a4.276,4.276,0,0,1,.527-.674.38.38,0,0,0,.117-.322q.176-.176.381-.41a.589.589,0,0,0,.146-.527,4.5,4.5,0,0,0,.732-.674.669.669,0,0,1,.322-.264q.234-.293.322-.381L91-37.09a1.209,1.209,0,0,1,.762-.82,2.041,2.041,0,0,1,.41-.41,1.066,1.066,0,0,0,.352-.469,4.689,4.689,0,0,0,.762-.469,1.587,1.587,0,0,1,.527-.439,1.587,1.587,0,0,0,.527-.439l.352-.117a.534.534,0,0,0,.293-.293,1.417,1.417,0,0,0,.645-.293,1.564,1.564,0,0,1,.41-.293,4.353,4.353,0,0,1,1.23-.615,1.755,1.755,0,0,0,.762-.381,3.324,3.324,0,0,1,.615-.117.364.364,0,0,0,.264-.117,2,2,0,0,0,.645-.293,1.331,1.331,0,0,0,.527-.146,1.027,1.027,0,0,1,.293-.146.53.53,0,0,1,.381-.088.822.822,0,0,0,.381-.029,10.4,10.4,0,0,1,1.377-.381,6.248,6.248,0,0,1,1.084-.088,6.071,6.071,0,0,1,1,.088,2.426,2.426,0,0,0,1-.029,1.983,1.983,0,0,1,.908.352.5.5,0,0,0,.5.117.881.881,0,0,0,.381.234q.205.059.5.176a5.085,5.085,0,0,1,.527.41.918.918,0,0,0,.234.176,1.286,1.286,0,0,0,.82.469.617.617,0,0,1,.527.234,1.455,1.455,0,0,0,.117.879,1.517,1.517,0,0,0-.762.645,1.659,1.659,0,0,0-.732.352,2.115,2.115,0,0,0-.264.41,3.258,3.258,0,0,0-.762.264q-.117.088-.293.205a.981.981,0,0,1-.352.264.518.518,0,0,0-.234.146,1.012,1.012,0,0,1-.82.176.46.46,0,0,1-.322-.234q-.088-.176-.439-.059a1.115,1.115,0,0,0-.176-.5,3.2,3.2,0,0,0-.234-.264q-.586-.469-.674-.439a.267.267,0,0,1-.205-.029,3.112,3.112,0,0,0-1-.293.9.9,0,0,0-.645-.264,1.971,1.971,0,0,1-.586-.029,3.086,3.086,0,0,0-1.113-.029.989.989,0,0,1-.527.029,3.8,3.8,0,0,1-1.172.205q-.352-.029-.469.146h-.439a2.607,2.607,0,0,0-.5.059,1.3,1.3,0,0,1-.586.293,1.106,1.106,0,0,0-.352.059,3.815,3.815,0,0,0-.645.322q0,.029-.117.088-1.055.469-1.055.938a.909.909,0,0,0-.527.469.609.609,0,0,0-.41.234.857.857,0,0,1-.41.293,7.774,7.774,0,0,0-.41.732.386.386,0,0,1-.293.205,4.114,4.114,0,0,0-.586,1.172,1.444,1.444,0,0,1-.41.7.437.437,0,0,0-.176.469,5.667,5.667,0,0,0-.293.557.78.78,0,0,1-.176.264,3.281,3.281,0,0,1-.322.967.312.312,0,0,0-.029.381,1.282,1.282,0,0,0-.234.82,3.732,3.732,0,0,1-.41.645.444.444,0,0,0-.059.41,8.734,8.734,0,0,1-.176,1.465,4.1,4.1,0,0,0-.117,1q-.41.586-.352.674a.361.361,0,0,1,.059.205,2.172,2.172,0,0,0-.146.645q.029.059-.088.176l-.41,1.7a7.967,7.967,0,0,1-.264,1.436,1.839,1.839,0,0,0-.088.85,2,2,0,0,0-.205.82.472.472,0,0,1-.146.41,11.1,11.1,0,0,0,.059,1.992,2.581,2.581,0,0,0,0,1.582.625.625,0,0,0-.146.7.664.664,0,0,1-.029.645,1.3,1.3,0,0,1,.117.586v.7a3.93,3.93,0,0,0-.117.557.472.472,0,0,0,.059.205,1.9,1.9,0,0,1,.117.85,2.56,2.56,0,0,0-.059.557,2.73,2.73,0,0,0,.146.85.371.371,0,0,1,.029.322q-.234.469-.117.527a.383.383,0,0,1,.176.176q0,.527-.293.645a10.561,10.561,0,0,0,.234,1.523,1.077,1.077,0,0,1,0,.7,4.463,4.463,0,0,1,.264.938,1.022,1.022,0,0,0,.146.469,1.383,1.383,0,0,0-.117.7.265.265,0,0,1-.059.293q.41.586.381.762a1.017,1.017,0,0,0,.029.41q.234.41.205.527t.088.059q.176-.41.381-.791a3.654,3.654,0,0,0,.322-.85,1.11,1.11,0,0,1,.381-.41.78.78,0,0,0,.264-.176,3.989,3.989,0,0,0,.469-1.055,1.138,1.138,0,0,1,.469-.7q.293-.586.381-.791a.643.643,0,0,1,.381-.322,2.021,2.021,0,0,0,.293-.586.525.525,0,0,1,.352-.352,1.326,1.326,0,0,1,.264-.557,3,3,0,0,1,.5-.5,1.2,1.2,0,0,1,.7-.527q.352-.234.381-.381a.924.924,0,0,1,.146-.322q.234.117.352-.059a1.046,1.046,0,0,1,.293-.293q.293-.176.557-.352a1.08,1.08,0,0,0,.381-.41,2.112,2.112,0,0,0,.7-.293,1.92,1.92,0,0,1,.293-.234A3.681,3.681,0,0,1,98-13.213a1.1,1.1,0,0,0,.5-.264.631.631,0,0,0,.586-.059l.586-.352A3.217,3.217,0,0,1,100.723-14a11.947,11.947,0,0,1,1.289.059q.41.352.5.41l.264.176.615.615.205.205a2.915,2.915,0,0,0,.234.615.783.783,0,0,0,.41.322q.059.176.117.381a.56.56,0,0,0,.234.322.809.809,0,0,0,.146.527.809.809,0,0,1,.146.527q.117.82.234,1.318a2.023,2.023,0,0,1,0,.967,3.048,3.048,0,0,1-.117.791.361.361,0,0,0-.059.205q.059.527,0,.586a.239.239,0,0,0-.059.176.377.377,0,0,0,0,.293,1.106,1.106,0,0,1,.059.352,2.8,2.8,0,0,0-.264,1.025,1.811,1.811,0,0,1-.029.557,7.441,7.441,0,0,1-.41.82.609.609,0,0,0-.059.469,1.375,1.375,0,0,1-.293.469.769.769,0,0,0-.117.645,1.826,1.826,0,0,0-.439.82,1.584,1.584,0,0,1-.5.82,5.667,5.667,0,0,1-.352.879l-.176.176-.293.293a3.825,3.825,0,0,0-.352.41q-.352.586-.527.586-.352.645-.439.82a.682.682,0,0,1-.322.293.538.538,0,0,1-.264.352.569.569,0,0,0-.264.41,1.02,1.02,0,0,0-.381.322,3.019,3.019,0,0,1-.322.381q-.586.41-.7.5a2.2,2.2,0,0,0-.234.205q-.352.469-.41.527A1.964,1.964,0,0,0,97.178,7a4.1,4.1,0,0,0-.381.439,1.721,1.721,0,0,0-1.348.879.58.58,0,0,0-.469.469,2.053,2.053,0,0,0-.586.293,2.293,2.293,0,0,1-.527.293q-.645.469-.85.381a.426.426,0,0,0-.439.088q-.7.645-.7.879a.678.678,0,0,0-.41.205,2.161,2.161,0,0,0-.234.381,1.233,1.233,0,0,0-.674.117.619.619,0,0,0-.205.293,1.848,1.848,0,0,0-.732.117q-.264.117-.615.234a1.975,1.975,0,0,1-.527.352,1.3,1.3,0,0,1-.41.059,1.828,1.828,0,0,0-.7.088.78.78,0,0,1-.352.088q-.352-.586-.527-.586t-.117-.293q.059-.937.469-.937a2.161,2.161,0,0,1,.234-.381,1.778,1.778,0,0,0,.234-.439,1.641,1.641,0,0,1-.117-.615,1.641,1.641,0,0,0-.117-.615,2.091,2.091,0,0,0-.176-.527.621.621,0,0,1,0-.527,6.558,6.558,0,0,0-.439-1.875,2.718,2.718,0,0,1-.264-1.23,2.8,2.8,0,0,0-.205-.674.263.263,0,0,1-.029-.264,1.6,1.6,0,0,0-.293-.762,1.148,1.148,0,0,1-.088-.557.682.682,0,0,0-.146-.5.973.973,0,0,0-.029-.7Q85.254.82,85.137.527l-.176-.7q-.059-.7-.088-.82a.142.142,0,0,1,.088-.176,1.014,1.014,0,0,1-.059-.879q-.234-.937-.322-1.23t-.205-.645v-.967a1.4,1.4,0,0,0-.176-.732q0-.762.029-1.113a1.4,1.4,0,0,0-.088-.645,8.243,8.243,0,0,0-.117-1.465,5.836,5.836,0,0,1-.088-1.084,3.6,3.6,0,0,0,.029-.5,2.7,2.7,0,0,1,.029-.381,1,1,0,0,0-.088-.5,4.973,4.973,0,0,1,0-1.523,2.026,2.026,0,0,0-.059-1.113.776.776,0,0,0,.117-.439v-.5a4.073,4.073,0,0,0,.029-.791,1.358,1.358,0,0,1-.029-.264,1.263,1.263,0,0,1,.088-.5,1.1,1.1,0,0,0,.088-.439,3.442,3.442,0,0,1,.059-.791q.059-.205.117-.439a6.288,6.288,0,0,1,.088-1.26q.088-.381.146-.732l.176-1.113a1.915,1.915,0,0,0,.029-.557.436.436,0,0,1,.146-.381q-.117-.176-.029-.293a1,1,0,0,0,.146-.352,1.1,1.1,0,0,0,.117-.5.7.7,0,0,1,.234-.5.431.431,0,0,1,0-.439.984.984,0,0,0,.176-.381,1.648,1.648,0,0,0,.088-.674.778.778,0,0,1,.146-.557q0-.645.059-.645t.117-.117ZM98.145,3.223q.352-.41.41-.5a1.915,1.915,0,0,0,.117-.205,1.3,1.3,0,0,0,.176-.41,1.816,1.816,0,0,1,.117-.352,4.106,4.106,0,0,0,.762-1.992A.286.286,0,0,0,100.02-.5a.4.4,0,0,0-.059-.381q.293-.7.469-1.055.059-.527.117-.527t.059-.117a2.672,2.672,0,0,1-.029-.645q.029,0,.029-.059a1.3,1.3,0,0,0,.088-.5.482.482,0,0,1-.029-.146,1.452,1.452,0,0,0,.146-.439,1,1,0,0,0-.088-.5,1.388,1.388,0,0,0,.234-.879q-.117-.469-.176-.762a1.251,1.251,0,0,1,.059-.645,1.323,1.323,0,0,1-.234-.586l-.117-.7a2.539,2.539,0,0,1-.41-.527,1.848,1.848,0,0,1-.293-.645.708.708,0,0,1-.322-.146A.668.668,0,0,0,99.2-9.9q-.469-.469-.615-.586a1.537,1.537,0,0,0-.264-.176,1.48,1.48,0,0,0-.586,0,1.251,1.251,0,0,1-.645-.059q-.469.352-.5.293t-.146-.059a2.362,2.362,0,0,0-.205.381.446.446,0,0,1-.322.264,2.309,2.309,0,0,1-.645.7q-.469.7-.7,1.084a1.589,1.589,0,0,0-.234.85,4.187,4.187,0,0,1-.5.7,1.42,1.42,0,0,0-.205.176q.059.527-.176.674a.887.887,0,0,0-.352.439,2.658,2.658,0,0,1-.117.645.416.416,0,0,0,.059.352q-.293.41-.264.5a.649.649,0,0,1,.029.205,2.509,2.509,0,0,0-.439,1,1.108,1.108,0,0,1-.205.586,1.2,1.2,0,0,1-.059.5.479.479,0,0,0-.059.264q-.059.41-.088.527a.262.262,0,0,1-.146.176q-.293,1.055-.469,2.051a.819.819,0,0,1-.029.527.475.475,0,0,0-.088.293q.059.527.059.762a5.263,5.263,0,0,0-.059.85V4.8a3.829,3.829,0,0,0,.029.7.408.408,0,0,1,.029.176,5.739,5.739,0,0,0,.117.85,1.257,1.257,0,0,1,.059.322l.117,1.055q.176.234.352.439a.862.862,0,0,1,.117.674.5.5,0,0,0,.41-.146,3.994,3.994,0,0,1,.293-.322,1.561,1.561,0,0,0,.527-.352,6.393,6.393,0,0,1,.527-.469.844.844,0,0,0,.586-.293.844.844,0,0,1,.586-.293,5.237,5.237,0,0,1,.527-.7l.352-.352.469-.586a1.28,1.28,0,0,0,.293-.264,3.2,3.2,0,0,1,.234-.264,1.92,1.92,0,0,1,.234-.293,1.92,1.92,0,0,0,.234-.293q.41-.352.469-.41t.176,0a.743.743,0,0,1,.176-.352Q98.262,3.516,98.145,3.223Zm15.293-31.406a1.562,1.562,0,0,1,.029-.352,1.081,1.081,0,0,0-.029-.41l.264-.527a.686.686,0,0,0,.029-.586q.234-.41.322-.527a2.2,2.2,0,0,1,.205-.234,3.826,3.826,0,0,1,.176-.586l.117-.234a9.172,9.172,0,0,1,.41-.967.871.871,0,0,0,.117-.439l.352-.586a4.276,4.276,0,0,1,.527-.674.38.38,0,0,0,.117-.322q.176-.176.381-.41a.589.589,0,0,0,.146-.527,4.5,4.5,0,0,0,.732-.674.669.669,0,0,1,.322-.264q.234-.293.322-.381l.205-.205a1.209,1.209,0,0,1,.762-.82,2.041,2.041,0,0,1,.41-.41,1.066,1.066,0,0,0,.352-.469,4.689,4.689,0,0,0,.762-.469A1.587,1.587,0,0,1,121-39.7a1.587,1.587,0,0,0,.527-.439l.352-.117a.534.534,0,0,0,.293-.293,1.417,1.417,0,0,0,.645-.293,1.564,1.564,0,0,1,.41-.293,4.353,4.353,0,0,1,1.23-.615,1.755,1.755,0,0,0,.762-.381,3.324,3.324,0,0,1,.615-.117.364.364,0,0,0,.264-.117,2,2,0,0,0,.645-.293,1.331,1.331,0,0,0,.527-.146,1.027,1.027,0,0,1,.293-.146.53.53,0,0,1,.381-.088.822.822,0,0,0,.381-.029,10.4,10.4,0,0,1,1.377-.381,6.248,6.248,0,0,1,1.084-.088,6.071,6.071,0,0,1,1,.088,2.426,2.426,0,0,0,1-.029,1.983,1.983,0,0,1,.908.352.5.5,0,0,0,.5.117.881.881,0,0,0,.381.234q.205.059.5.176a5.085,5.085,0,0,1,.527.41.918.918,0,0,0,.234.176,1.286,1.286,0,0,0,.82.469.617.617,0,0,1,.527.234,1.455,1.455,0,0,0,.117.879,1.517,1.517,0,0,0-.762.645,1.659,1.659,0,0,0-.732.352,2.115,2.115,0,0,0-.264.41,3.258,3.258,0,0,0-.762.264q-.117.088-.293.205a.981.981,0,0,1-.352.264.518.518,0,0,0-.234.146,1.012,1.012,0,0,1-.82.176.46.46,0,0,1-.322-.234q-.088-.176-.439-.059a1.115,1.115,0,0,0-.176-.5,3.2,3.2,0,0,0-.234-.264q-.586-.469-.674-.439a.267.267,0,0,1-.205-.029,3.112,3.112,0,0,0-1-.293.9.9,0,0,0-.645-.264,1.971,1.971,0,0,1-.586-.029,3.086,3.086,0,0,0-1.113-.029.989.989,0,0,1-.527.029,3.8,3.8,0,0,1-1.172.205q-.352-.029-.469.146h-.439a2.607,2.607,0,0,0-.5.059,1.3,1.3,0,0,1-.586.293,1.106,1.106,0,0,0-.352.059,3.815,3.815,0,0,0-.645.322q0,.029-.117.088-1.055.469-1.055.938a.909.909,0,0,0-.527.469.609.609,0,0,0-.41.234.857.857,0,0,1-.41.293,7.774,7.774,0,0,0-.41.732.386.386,0,0,1-.293.205,4.114,4.114,0,0,0-.586,1.172,1.444,1.444,0,0,1-.41.7.437.437,0,0,0-.176.469,5.667,5.667,0,0,0-.293.557.78.78,0,0,1-.176.264,3.281,3.281,0,0,1-.322.967.312.312,0,0,0-.029.381,1.282,1.282,0,0,0-.234.82,3.732,3.732,0,0,1-.41.645.444.444,0,0,0-.059.41,8.734,8.734,0,0,1-.176,1.465,4.1,4.1,0,0,0-.117,1q-.41.586-.352.674a.361.361,0,0,1,.059.205,2.172,2.172,0,0,0-.146.645q.029.059-.088.176l-.41,1.7a7.967,7.967,0,0,1-.264,1.436,1.839,1.839,0,0,0-.088.85,2,2,0,0,0-.205.82.472.472,0,0,1-.146.41,11.1,11.1,0,0,0,.059,1.992,2.581,2.581,0,0,0,0,1.582.625.625,0,0,0-.146.7.664.664,0,0,1-.029.645,1.3,1.3,0,0,1,.117.586v.7a3.93,3.93,0,0,0-.117.557.472.472,0,0,0,.059.205,1.9,1.9,0,0,1,.117.85,2.56,2.56,0,0,0-.059.557,2.73,2.73,0,0,0,.146.85.371.371,0,0,1,.029.322q-.234.469-.117.527a.383.383,0,0,1,.176.176q0,.527-.293.645a10.561,10.561,0,0,0,.234,1.523,1.077,1.077,0,0,1,0,.7,4.463,4.463,0,0,1,.264.938,1.022,1.022,0,0,0,.146.469,1.383,1.383,0,0,0-.117.7.265.265,0,0,1-.059.293q.41.586.381.762a1.017,1.017,0,0,0,.029.41q.234.41.205.527t.088.059q.176-.41.381-.791a3.654,3.654,0,0,0,.322-.85,1.11,1.11,0,0,1,.381-.41.78.78,0,0,0,.264-.176,3.989,3.989,0,0,0,.469-1.055,1.138,1.138,0,0,1,.469-.7q.293-.586.381-.791a.643.643,0,0,1,.381-.322,2.021,2.021,0,0,0,.293-.586.525.525,0,0,1,.352-.352,1.326,1.326,0,0,1,.264-.557,3,3,0,0,1,.5-.5,1.2,1.2,0,0,1,.7-.527q.352-.234.381-.381a.924.924,0,0,1,.146-.322q.234.117.352-.059a1.046,1.046,0,0,1,.293-.293q.293-.176.557-.352a1.08,1.08,0,0,0,.381-.41,2.112,2.112,0,0,0,.7-.293,1.92,1.92,0,0,1,.293-.234,3.681,3.681,0,0,1,.674-.264,1.1,1.1,0,0,0,.5-.264.631.631,0,0,0,.586-.059l.586-.352A3.217,3.217,0,0,1,127.91-14a11.947,11.947,0,0,1,1.289.059q.41.352.5.41l.264.176.615.615.205.205a2.915,2.915,0,0,0,.234.615.783.783,0,0,0,.41.322q.059.176.117.381a.56.56,0,0,0,.234.322.809.809,0,0,0,.146.527.809.809,0,0,1,.146.527q.117.82.234,1.318a2.023,2.023,0,0,1,0,.967,3.048,3.048,0,0,1-.117.791.361.361,0,0,0-.059.205q.059.527,0,.586a.239.239,0,0,0-.059.176.377.377,0,0,0,0,.293,1.106,1.106,0,0,1,.059.352,2.8,2.8,0,0,0-.264,1.025,1.811,1.811,0,0,1-.029.557,7.441,7.441,0,0,1-.41.82.609.609,0,0,0-.059.469,1.375,1.375,0,0,1-.293.469.769.769,0,0,0-.117.645,1.826,1.826,0,0,0-.439.82,1.584,1.584,0,0,1-.5.82,5.667,5.667,0,0,1-.352.879l-.176.176-.293.293a3.825,3.825,0,0,0-.352.41q-.352.586-.527.586-.352.645-.439.82a.682.682,0,0,1-.322.293.538.538,0,0,1-.264.352.569.569,0,0,0-.264.41,1.02,1.02,0,0,0-.381.322,3.019,3.019,0,0,1-.322.381q-.586.41-.7.5a2.2,2.2,0,0,0-.234.205q-.352.469-.41.527a1.964,1.964,0,0,0-.615.381,4.1,4.1,0,0,0-.381.439,1.721,1.721,0,0,0-1.348.879.58.58,0,0,0-.469.469,2.053,2.053,0,0,0-.586.293,2.293,2.293,0,0,1-.527.293q-.645.469-.85.381a.426.426,0,0,0-.439.088q-.7.645-.7.879a.678.678,0,0,0-.41.205,2.161,2.161,0,0,0-.234.381,1.233,1.233,0,0,0-.674.117.619.619,0,0,0-.205.293,1.848,1.848,0,0,0-.732.117q-.264.117-.615.234a1.975,1.975,0,0,1-.527.352,1.3,1.3,0,0,1-.41.059,1.828,1.828,0,0,0-.7.088.78.78,0,0,1-.352.088q-.352-.586-.527-.586t-.117-.293q.059-.937.469-.937a2.161,2.161,0,0,1,.234-.381,1.778,1.778,0,0,0,.234-.439,1.641,1.641,0,0,1-.117-.615,1.641,1.641,0,0,0-.117-.615,2.091,2.091,0,0,0-.176-.527.621.621,0,0,1,0-.527,6.558,6.558,0,0,0-.439-1.875,2.718,2.718,0,0,1-.264-1.23,2.8,2.8,0,0,0-.205-.674.263.263,0,0,1-.029-.264,1.6,1.6,0,0,0-.293-.762,1.148,1.148,0,0,1-.088-.557.682.682,0,0,0-.146-.5.973.973,0,0,0-.029-.7q-.146-.352-.264-.645l-.176-.7q-.059-.7-.088-.82a.142.142,0,0,1,.088-.176,1.014,1.014,0,0,1-.059-.879q-.234-.937-.322-1.23t-.205-.645v-.967a1.4,1.4,0,0,0-.176-.732q0-.762.029-1.113a1.4,1.4,0,0,0-.088-.645,8.243,8.243,0,0,0-.117-1.465,5.836,5.836,0,0,1-.088-1.084,3.6,3.6,0,0,0,.029-.5,2.7,2.7,0,0,1,.029-.381,1,1,0,0,0-.088-.5,4.973,4.973,0,0,1,0-1.523,2.026,2.026,0,0,0-.059-1.113.776.776,0,0,0,.117-.439v-.5a4.073,4.073,0,0,0,.029-.791,1.358,1.358,0,0,1-.029-.264,1.263,1.263,0,0,1,.088-.5,1.1,1.1,0,0,0,.088-.439,3.442,3.442,0,0,1,.059-.791q.059-.205.117-.439a6.288,6.288,0,0,1,.088-1.26q.088-.381.146-.732l.176-1.113a1.915,1.915,0,0,0,.029-.557.436.436,0,0,1,.146-.381q-.117-.176-.029-.293a1,1,0,0,0,.146-.352,1.1,1.1,0,0,0,.117-.5.7.7,0,0,1,.234-.5.431.431,0,0,1,0-.439.984.984,0,0,0,.176-.381,1.648,1.648,0,0,0,.088-.674.778.778,0,0,1,.146-.557q0-.645.059-.645t.117-.117ZM125.332,3.223q.352-.41.41-.5a1.915,1.915,0,0,0,.117-.205,1.3,1.3,0,0,0,.176-.41,1.816,1.816,0,0,1,.117-.352,4.106,4.106,0,0,0,.762-1.992.286.286,0,0,0,.293-.264.4.4,0,0,0-.059-.381q.293-.7.469-1.055.059-.527.117-.527t.059-.117a2.672,2.672,0,0,1-.029-.645q.029,0,.029-.059a1.3,1.3,0,0,0,.088-.5.482.482,0,0,1-.029-.146A1.452,1.452,0,0,0,128-4.365a1,1,0,0,0-.088-.5,1.388,1.388,0,0,0,.234-.879q-.117-.469-.176-.762a1.251,1.251,0,0,1,.059-.645,1.323,1.323,0,0,1-.234-.586l-.117-.7a2.539,2.539,0,0,1-.41-.527,1.848,1.848,0,0,1-.293-.645.708.708,0,0,1-.322-.146.668.668,0,0,0-.264-.146q-.469-.469-.615-.586a1.537,1.537,0,0,0-.264-.176,1.48,1.48,0,0,0-.586,0,1.251,1.251,0,0,1-.645-.059q-.469.352-.5.293t-.146-.059a2.362,2.362,0,0,0-.205.381.446.446,0,0,1-.322.264,2.309,2.309,0,0,1-.645.7q-.469.7-.7,1.084a1.589,1.589,0,0,0-.234.85,4.187,4.187,0,0,1-.5.7,1.42,1.42,0,0,0-.205.176q.059.527-.176.674a.887.887,0,0,0-.352.439,2.658,2.658,0,0,1-.117.645.416.416,0,0,0,.059.352q-.293.41-.264.5a.649.649,0,0,1,.029.205,2.509,2.509,0,0,0-.439,1,1.108,1.108,0,0,1-.205.586,1.2,1.2,0,0,1-.059.5.479.479,0,0,0-.059.264q-.059.41-.088.527A.262.262,0,0,1,119-.469q-.293,1.055-.469,2.051a.819.819,0,0,1-.029.527.475.475,0,0,0-.088.293q.059.527.059.762a5.263,5.263,0,0,0-.059.85V4.8a3.829,3.829,0,0,0,.029.7.408.408,0,0,1,.029.176,5.739,5.739,0,0,0,.117.85,1.257,1.257,0,0,1,.059.322l.117,1.055q.176.234.352.439a.862.862,0,0,1,.117.674.5.5,0,0,0,.41-.146,3.994,3.994,0,0,1,.293-.322,1.561,1.561,0,0,0,.527-.352A6.393,6.393,0,0,1,121,7.734a.844.844,0,0,0,.586-.293.844.844,0,0,1,.586-.293,5.237,5.237,0,0,1,.527-.7l.352-.352.469-.586a1.28,1.28,0,0,0,.293-.264,3.2,3.2,0,0,1,.234-.264,1.92,1.92,0,0,1,.234-.293,1.92,1.92,0,0,0,.234-.293q.41-.352.469-.41t.176,0a.743.743,0,0,1,.176-.352Q125.449,3.516,125.332,3.223ZM153.223,17.93q-.176.059-.381.146a2.362,2.362,0,0,0-.381.205,1.714,1.714,0,0,1-.586.352l-.469.469a.786.786,0,0,1-.41.322.435.435,0,0,0-.293.205,6.738,6.738,0,0,1-1.025.469,2.733,2.733,0,0,0-.85.469q-.41.059-.439.146a.577.577,0,0,1-.146.205,1.912,1.912,0,0,0-.557.205q-.264.146-.557.322-.469.293-.615.264a.625.625,0,0,0-.322.029,1.362,1.362,0,0,1-.264.205.847.847,0,0,0-.264.264,4.067,4.067,0,0,0-1.055.176,2.6,2.6,0,0,0-.469.234.574.574,0,0,0-.469-.029,2.006,2.006,0,0,1-.41.146,1.991,1.991,0,0,0-.557-.029,1.646,1.646,0,0,1-.322.029q-.293-.176-.439-.117t-.205-.059q-1,.059-1.055.176a2.246,2.246,0,0,0-1.465-.117,2.071,2.071,0,0,0-1-.322,1.407,1.407,0,0,1-.937-.439,1.149,1.149,0,0,1-.352-.029.57.57,0,0,0-.293.029.743.743,0,0,0-.352-.176.524.524,0,0,1-.352-.293q-.469-.586-.527-.5t-.176.029a4.677,4.677,0,0,0-.732-.645.538.538,0,0,1-.264-.352.5.5,0,0,1-.41-.146.619.619,0,0,0-.293-.205.508.508,0,0,0-.293-.439.982.982,0,0,1-.352-.205q-.059-.293-.088-.586a.744.744,0,0,0-.205-.469.8.8,0,0,0-.117-.586,1.842,1.842,0,0,1-.234-.586.624.624,0,0,0,.117-.439.624.624,0,0,1,.117-.439,2.1,2.1,0,0,0-.059-.439q-.059-.264.117-.322a7.81,7.81,0,0,1,.029-.791q.029-.264.146-.264a4.054,4.054,0,0,1,.117-.469,1.479,1.479,0,0,1,.176-.352q-.234-.469-.059-.586a2,2,0,0,0,.41-.41,2.045,2.045,0,0,1,.439-.5A.649.649,0,0,1,134,11.66q.059-.645.352-.645a.532.532,0,0,1,.146-.527,1.181,1.181,0,0,0,.322-.469,1.274,1.274,0,0,1,.469-.527.741.741,0,0,0,.352-.41.31.31,0,0,0,.264-.264q.029-.205.322-.264A2,2,0,0,0,136.553,8q-.029-.029.029-.146a7.157,7.157,0,0,0,.908-.293,1.355,1.355,0,0,1,.557-.117q-.059.645.088.645t.146.117q-.176.645-.234.791t-.117.322q-.352,0-.439.117a.38.38,0,0,1-.322.117q.117.352-.059.439t0,.381a5.273,5.273,0,0,0-.381.615.482.482,0,0,0-.029.146q-.352.469-.41.557a.442.442,0,0,1-.176.146q.176.527.088.557a.135.135,0,0,0-.088.146,2.8,2.8,0,0,1-.029.557q-.029.088-.088.322a1.905,1.905,0,0,0-.088.645,2.135,2.135,0,0,1,.029.352q.117.762.146.879l.088.352q.352.586.527.82a1.053,1.053,0,0,1,.176.645q.586.469.674.557l.205.205a.384.384,0,0,1,.381.176q.088.176.381.117.469.527.615.527t.264.234a.555.555,0,0,1,.5,0q.205.117.381.234.586.176.762.234a.959.959,0,0,0,.234.059q.82.117,1.289.176l.938.117a6.694,6.694,0,0,0,1.23.088q.352-.029.7-.029a1.106,1.106,0,0,1,.352.059.265.265,0,0,0,.293-.059.5.5,0,0,1,.41-.088.4.4,0,0,0,.41-.146.607.607,0,0,0,.586-.059,1.289,1.289,0,0,1,.527-.234l.527-.41a3.668,3.668,0,0,1,1.025-.732,1.531,1.531,0,0,0,.791-.908q.41-.234.527-.322t0-.322a.354.354,0,0,0,.322-.322.354.354,0,0,1,.322-.322,2.312,2.312,0,0,0,.439-.879.807.807,0,0,1,.439-.586.709.709,0,0,1,.146-.469,4.121,4.121,0,0,0,.264-.352,1.251,1.251,0,0,1,.059-.85,1.068,1.068,0,0,0,0-.85q.293-.059.322-.293a.469.469,0,0,1,.205-.352,1.553,1.553,0,0,1,.059-.762,1.553,1.553,0,0,0,.059-.762.6.6,0,0,0,.176-.439,6.294,6.294,0,0,1,.059-.732,2.775,2.775,0,0,0,.088-.674.591.591,0,0,1-.029-.264,2.006,2.006,0,0,1,.146-.41.444.444,0,0,0-.029-.41,2.65,2.65,0,0,0,.205-.674.232.232,0,0,1-.029-.146,3.6,3.6,0,0,0-.029-.5.53.53,0,0,1,.088-.381q-.059-.469-.088-.645a1.841,1.841,0,0,1-.029-.293q.176-.117.146-.469a.606.606,0,0,1,.088-.469,1.624,1.624,0,0,1-.117-.791.729.729,0,0,0-.059-.5.3.3,0,0,0,.088-.381.516.516,0,0,1,.088-.5,1.729,1.729,0,0,1-.117-.762.7.7,0,0,0,0-.41,9.47,9.47,0,0,1,.176-2.93,2.151,2.151,0,0,0-.146-.879.2.2,0,0,1-.088-.176,1.04,1.04,0,0,1,.059-.381.457.457,0,0,0,0-.322,1.493,1.493,0,0,0-.088-.527A.715.715,0,0,1,154.1-5.8a.931.931,0,0,1-.146-.5,1.358,1.358,0,0,0,.029-.264v-.645a.959.959,0,0,1,.117-.527,2.254,2.254,0,0,0-.146-.908.554.554,0,0,1,.088-.615q-.117-1.113-.146-1.816a6.1,6.1,0,0,1,.088-1.348q-.176-.469-.117-.557a.361.361,0,0,0,.059-.205,2.3,2.3,0,0,1-.146-.791.53.53,0,0,0-.088-.381.25.25,0,0,0-.322.117,3.275,3.275,0,0,1-.205.352,2.916,2.916,0,0,1-.352.527l-.234.234a3.2,3.2,0,0,0-.234.264.628.628,0,0,1-.352.205q-.293.41-.322.469a.26.26,0,0,0-.029.117,2.4,2.4,0,0,0-.322.527.518.518,0,0,1-.146.234l-.469,1a4.715,4.715,0,0,1-.439.41q-.088.059-.029.234a2.675,2.675,0,0,0-.586.82.524.524,0,0,1-.293.352q-.527.527-.527.762a.743.743,0,0,0-.352.176,1.363,1.363,0,0,1-.352.234q-.469.41-.527.469a.239.239,0,0,1-.176.059q-.645.41-.7.439a.834.834,0,0,0-.176.146q-.41.352-.439.322t-.146.029a3.2,3.2,0,0,1-.264.234,3.2,3.2,0,0,0-.264.234,2.063,2.063,0,0,0-.557.264l-.205.205a3.306,3.306,0,0,0-.762.469.808.808,0,0,1-.586.176,1.742,1.742,0,0,0-.469.264.809.809,0,0,1-.527.146,6,6,0,0,1-.879.117.375.375,0,0,1-.352-.234,8.039,8.039,0,0,1-1-.352,3,3,0,0,1-.645-.879,2.178,2.178,0,0,1-.059-.527.952.952,0,0,1,0-.469.493.493,0,0,0-.059-.41.232.232,0,0,1-.029-.293.33.33,0,0,0-.029-.352,1.483,1.483,0,0,0-.059-.5.86.86,0,0,1-.059-.322,1.811,1.811,0,0,1-.029-.557,3.316,3.316,0,0,0-.029-.732v-.469a.4.4,0,0,0-.117-.293,3.66,3.66,0,0,1,.088-.586q.029-.059-.029-.059a6.217,6.217,0,0,1-.059-.7,3.554,3.554,0,0,1,.059-.732.31.31,0,0,0-.176-.381,1.148,1.148,0,0,0,.088-.732,1.948,1.948,0,0,1-.088-.615,1.629,1.629,0,0,0,0-.615,3.442,3.442,0,0,1-.059-.615,2.28,2.28,0,0,0-.322-.967.446.446,0,0,1-.088-.5,4.586,4.586,0,0,1-.586-1.055,1.205,1.205,0,0,0-1.055-.7,1.519,1.519,0,0,0-1.055-.527h-1a1.516,1.516,0,0,0-.381.029.676.676,0,0,1-.322-.029q-.586-.176-.557-.322t-.088-.146a2.421,2.421,0,0,0,.5-.586q.029-.117.205-.059a10.747,10.747,0,0,1,1.113-.732,1.707,1.707,0,0,1,.762-.146,2.209,2.209,0,0,1,.381-.322.733.733,0,0,1,.381-.088,1.675,1.675,0,0,1,.762-.205,1.136,1.136,0,0,0,.762-.322,1.3,1.3,0,0,0,.41.176.743.743,0,0,1,.352.176q.645.059.7.176a.188.188,0,0,0,.176.117,1,1,0,0,1,.586.293,4.218,4.218,0,0,1,.732.264,1.362,1.362,0,0,1,.264.205,2.346,2.346,0,0,1,.527.7q0,.117.176.176a.294.294,0,0,0,.059.381,1.765,1.765,0,0,1,.293.5,4.1,4.1,0,0,1,.059.674q0,.322.41.381v1a.5.5,0,0,1,.059.615.462.462,0,0,0,.117.615,7.76,7.76,0,0,0,0,1.348,2.439,2.439,0,0,1-.029.938.444.444,0,0,0,.029.41v.7a4.819,4.819,0,0,0,.059.732.62.62,0,0,1-.117.557,3.853,3.853,0,0,1,.117.938,1.009,1.009,0,0,0,.088.527.162.162,0,0,1-.029.234q.176.762.234,1.143a.582.582,0,0,0,.352.5q1.406.527,1.7-.469l.527-.645a1.458,1.458,0,0,1,.352-.645,1.171,1.171,0,0,0,.293-.7q.527-.41.527-.527a2.058,2.058,0,0,1,.586-.469,2.119,2.119,0,0,0,.439-.732.31.31,0,0,1,.264-.264q.176-.586.322-.615t.146-.264l.7-.7a1.258,1.258,0,0,1,.234-.41.265.265,0,0,0,.059-.293,3.315,3.315,0,0,1,.439-.645,1.42,1.42,0,0,0,.205-.176,1.038,1.038,0,0,1,.205-.469q.146-.176.322-.352a.643.643,0,0,1,.176-.615.407.407,0,0,0,.117-.5,3.325,3.325,0,0,0,.527-.527.54.54,0,0,0,.117-.469.791.791,0,0,0,.469-.7,1.917,1.917,0,0,0,.439-.674,2.515,2.515,0,0,1,.381-.674q.176-.7.117-.762a.239.239,0,0,1-.059-.176,2.153,2.153,0,0,1,.439-.791.492.492,0,0,0,.205-.322,6.694,6.694,0,0,0,.85-.469,3.2,3.2,0,0,0,.264-.234,1.271,1.271,0,0,0,.615-.117,1.53,1.53,0,0,0,.322-.234q.7,0,.762-.352a1.535,1.535,0,0,1,.879,0,1.307,1.307,0,0,0,.469.176q0,.938-.059,1.582t-.059,1.406l-.146.586q-.029.117.146.234-.117.7-.176,1.23a.647.647,0,0,1,.117.645,1.857,1.857,0,0,0-.059.82q-.176.469-.117.527l.176.176a1.446,1.446,0,0,1,.029.469.408.408,0,0,0-.029.176,3.292,3.292,0,0,1,.059.645,1.3,1.3,0,0,1-.117.586,1.744,1.744,0,0,1,.146.82,3.846,3.846,0,0,0,.029.82,3.791,3.791,0,0,1,.088.938q-.029.293-.029.645a1.261,1.261,0,0,1,.059.615.361.361,0,0,0-.059.205,8.215,8.215,0,0,1,.059.879,1.3,1.3,0,0,0,.117.586q-.176.41-.117.527a.45.45,0,0,1,.059.176,4.845,4.845,0,0,1-.059.645,4.845,4.845,0,0,0-.059.645,3.7,3.7,0,0,1,.088.527,1.022,1.022,0,0,0,.146.469,1.814,1.814,0,0,0-.088.908,1.1,1.1,0,0,1,.088.439,6.735,6.735,0,0,1-.029.82.281.281,0,0,0,.146.293,2.252,2.252,0,0,1-.176.791.338.338,0,0,0,0,.381q-.234.586-.146.586t.088.059a2.973,2.973,0,0,1,.029.674.448.448,0,0,0,.029.264,1.948,1.948,0,0,0,.117,1.289,1.507,1.507,0,0,0-.059.674.361.361,0,0,1,.059.205l-.117.7a1.623,1.623,0,0,0-.029.5.232.232,0,0,1,.029.146,5.38,5.38,0,0,1-.029.674.551.551,0,0,1-.146.322l-.059.645v1a1.746,1.746,0,0,1,.029.527.661.661,0,0,1-.117.293.644.644,0,0,0-.117.264,1.133,1.133,0,0,0,.088.5.909.909,0,0,0-.176.645,2.358,2.358,0,0,1-.059.645l-.117.762a3.053,3.053,0,0,1-.117.615q-.059.146-.117.322a3.185,3.185,0,0,1-.176.908,1.23,1.23,0,0,0-.059.674,2.849,2.849,0,0,0-.381.5.267.267,0,0,1-.146.146q-.234.7-.352,1.113a2.057,2.057,0,0,0-.293.469q0,.059-.117.059a1.212,1.212,0,0,1-.146.557.281.281,0,0,1-.205.088.694.694,0,0,1-.117.439.694.694,0,0,0-.117.439.321.321,0,0,0-.322.205,2.362,2.362,0,0,1-.205.381q-.469.41-.469.469a.169.169,0,0,1-.059.117,3.481,3.481,0,0,1-.7.557.138.138,0,0,0-.117.146ZM203.2,7.266a.626.626,0,0,1-.381,0q-.146-.059-.264-.117-.586-.059-.732-.088t-.088-.264a5.158,5.158,0,0,1-1.348-.352q-.059-.527-.469-.586-.176-.645-.293-.645a.188.188,0,0,1-.176-.117q-.41-.645-.762-.645a2.057,2.057,0,0,0-.352-.82.334.334,0,0,1-.117-.352q-.176-.293-.264-.41a.162.162,0,0,1,.029-.234.7.7,0,0,1-.264-.352.7.7,0,0,0-.264-.352,5,5,0,0,0-.234-.85q-.059-.088.059-.205l-.176-.937a2.788,2.788,0,0,1-.176-.762.477.477,0,0,0-.117-.352.938.938,0,0,0-.059-.732,1.151,1.151,0,0,1-.117-.732,2.528,2.528,0,0,1-.059-.879,4.314,4.314,0,0,0-.937.645.844.844,0,0,0-.586.293.844.844,0,0,1-.586.293q-.293.234-.41.352a.146.146,0,0,1-.234,0,1.866,1.866,0,0,0-.645.5.78.78,0,0,1-.176.264q-.7.117-.937.176a1.115,1.115,0,0,1-.293.205,1.115,1.115,0,0,0-.293.205,1.076,1.076,0,0,0-.967.264,1.2,1.2,0,0,1-.85.381,1.523,1.523,0,0,0-.674.205,1.276,1.276,0,0,1-.5.205,1.71,1.71,0,0,1-.7-.029.534.534,0,0,0-.586.205h-1a1.112,1.112,0,0,1-.527,0l-.234-.117a2.521,2.521,0,0,0-.469-.059.506.506,0,0,1-.352-.176q-.352,0-.439-.117a2.2,2.2,0,0,0-.205-.234,5.422,5.422,0,0,0-.762-.293,1.3,1.3,0,0,1-.41-.176l-.293-.439a.264.264,0,0,0-.234-.088,1.629,1.629,0,0,0-.41-.645,1.486,1.486,0,0,0-.352-.7,1.816,1.816,0,0,0-.117-.762,3.186,3.186,0,0,1-.117-.879,2.241,2.241,0,0,1-.205-.879q-.029-.527-.029-.82a3.4,3.4,0,0,1,.469-1.465,5.1,5.1,0,0,1,.088-.615.368.368,0,0,1,.088-.146.955.955,0,0,0,.234-.7,1.535,1.535,0,0,0,.146-.645.281.281,0,0,1,.146-.293l.176-.7a2.36,2.36,0,0,0,.41-.7.524.524,0,0,1,.293-.352.586.586,0,0,1,.352-.762q.234-.586.322-.557a.133.133,0,0,0,.146-.029,1.5,1.5,0,0,0,.322-.5q.029-.146.205-.088a3.679,3.679,0,0,1,.381-.645,1.511,1.511,0,0,1,.322-.293,5.612,5.612,0,0,0,.439-.381l.264-.264a.805.805,0,0,0,.41-.176,1.92,1.92,0,0,0,.234-.293,1.1,1.1,0,0,0,.645-.293,1.471,1.471,0,0,1,.586-.352,2.813,2.813,0,0,0,.615-.469.616.616,0,0,1,.5-.176,4.216,4.216,0,0,1,1.055-.586,3.615,3.615,0,0,1,.879-.5q.293-.088.586-.205a1.055,1.055,0,0,0,.5-.146.782.782,0,0,1,.205-.146,3.633,3.633,0,0,0,.732-.117q.146-.059.322-.117a5.55,5.55,0,0,1,1-.029q.527.029,1,.029a1.017,1.017,0,0,0,.41.029,1.842,1.842,0,0,1,.293-.029,4.055,4.055,0,0,1,.469.117.387.387,0,0,0,.352-.059.945.945,0,0,0,.117-.586,1.524,1.524,0,0,1-.059-.469q.059-.527,0-.586a.169.169,0,0,1-.059-.117,3.233,3.233,0,0,1,.029-.674.119.119,0,0,0,.029-.088,6.471,6.471,0,0,1,0-1.23,2.7,2.7,0,0,1,.029-.381,2.7,2.7,0,0,0,.029-.381q-.059-.234-.117-.41a1.524,1.524,0,0,1-.059-.469,3.232,3.232,0,0,0,.029-.7.408.408,0,0,1-.029-.176.729.729,0,0,1,0-.41,1.3,1.3,0,0,0,.059-.41,2.7,2.7,0,0,0-.029-.381,3.6,3.6,0,0,1-.029-.5v-.439a2.607,2.607,0,0,1,.059-.5,2.371,2.371,0,0,1-.029-.615,3.6,3.6,0,0,0,.029-.5,1.952,1.952,0,0,1,.059-.7q.059-.059,0-.293a1.839,1.839,0,0,0-.146-.615.525.525,0,0,1-.088-.264,2.188,2.188,0,0,1,.029-.615q.029.029.029-.029-.059-.82-.117-1.23a1.362,1.362,0,0,1,.059-.7,3.861,3.861,0,0,1-.146-.527.317.317,0,0,1,.088-.293,7.279,7.279,0,0,1-.176-.791v-.146q-.293-.293-.264-.381a.267.267,0,0,0-.029-.205.709.709,0,0,1-.146-.439q.029-.146-.146-.264a1.169,1.169,0,0,0-.176-.82.438.438,0,0,0-.029-.469.637.637,0,0,1-.088-.527,1.9,1.9,0,0,0-.293-.527l-.234-.234a4.4,4.4,0,0,0-.234-.5,1.915,1.915,0,0,1-.117-.205,1.057,1.057,0,0,1-.7-.7,1.816,1.816,0,0,1-.352-.117.918.918,0,0,1-.234-.176,2.871,2.871,0,0,1-.82,0,.786.786,0,0,0-.645.176,4,4,0,0,1-.762.146q-.352.029-.7.088a.825.825,0,0,1-.264-.469,2.147,2.147,0,0,0-.088-.41,1.362,1.362,0,0,1,.264-.205.344.344,0,0,0,.146-.322.327.327,0,0,0,.322-.176,1.115,1.115,0,0,1,.205-.293.689.689,0,0,0,.645-.293.726.726,0,0,0,.674-.176.854.854,0,0,1,.674-.234q.527-.293.879-.469a.889.889,0,0,1,.7-.059,2.9,2.9,0,0,0,.82-.146.78.78,0,0,1,.352-.088,3.242,3.242,0,0,1,1.172.41,1.356,1.356,0,0,1,.674.088.782.782,0,0,1,.146.205,2.031,2.031,0,0,0,.439.439,1.609,1.609,0,0,1,.205.088q.234.527.264.615a1.608,1.608,0,0,0,.088.205l.439.352a.619.619,0,0,1,.205.293.838.838,0,0,0,.205.527q.146.117.029.234a2.014,2.014,0,0,0,.469,1.289q.059.527.117.879a.789.789,0,0,0,.293.527.767.767,0,0,1,0,.439q-.059.088.059.322a3.054,3.054,0,0,1,0,.938.477.477,0,0,1,.117.352.477.477,0,0,0,.117.352,1.182,1.182,0,0,0-.059.645,3.945,3.945,0,0,1,.059.645,3.844,3.844,0,0,0-.059.439.472.472,0,0,0,.059.205.945.945,0,0,0-.029.615,6.824,6.824,0,0,1,.146.674,3.233,3.233,0,0,1-.029.674.232.232,0,0,0-.029.146,3.711,3.711,0,0,0,.088,1.348.936.936,0,0,1-.029.762,1.674,1.674,0,0,1-.059.645.239.239,0,0,0-.059.176,1.978,1.978,0,0,1,0,.732q-.059.088.117.205a1.57,1.57,0,0,0-.029.791.322.322,0,0,1-.088.381,1.1,1.1,0,0,1,.117.5v.557q-.117.527,0,.586a.116.116,0,0,1,.059.176q-.059,1-.117,1.406a3.307,3.307,0,0,0,0,.879,10.982,10.982,0,0,1,.059,1.2,9.417,9.417,0,0,1-.059,1.143,1.351,1.351,0,0,1,0,.586.45.45,0,0,0-.059.176,1.623,1.623,0,0,0-.029.5.232.232,0,0,1,.029.146q0,.645-.088.615t-.088.088q.059.82.059,1.172a.617.617,0,0,0,.234.527,5.425,5.425,0,0,1,.586.146.459.459,0,0,1,.117.088,1.259,1.259,0,0,1,.293.439.472.472,0,0,0,.059.205,1.771,1.771,0,0,1,.029,1.055.973.973,0,0,0-.029.7,1.293,1.293,0,0,0-.176.439.586.586,0,0,1-.234.381,7.514,7.514,0,0,1-.059,1.113.723.723,0,0,1-.352.527.293.293,0,0,1,0,.352,1.479,1.479,0,0,0-.176.352,2.458,2.458,0,0,0,0,.762,3.307,3.307,0,0,1,0,.879,4.074,4.074,0,0,0-.088.938.585.585,0,0,1-.088.41,2.431,2.431,0,0,1,.176,1.26,6.26,6.26,0,0,0,.059,1.494,4.24,4.24,0,0,0,.176.615.725.725,0,0,1-.117.674q.293.645.352.82t.176.469a1.1,1.1,0,0,0,.117.82q.293.527.205.527t-.088.117a.551.551,0,0,1,.146.322.3.3,0,0,0,.205.264,2.171,2.171,0,0,1,.146.7.331.331,0,0,0,.029.234q.293.234.264.352t.205.117q.234.879.41.967a.384.384,0,0,1,.176.381,2.3,2.3,0,0,0,.469.527.918.918,0,0,1,.234.176,5.417,5.417,0,0,0,.527.557.317.317,0,0,1,.117.146,2.668,2.668,0,0,1,1.113.527h.381a1.2,1.2,0,0,1,.381.059,2.126,2.126,0,0,0,.82.146,3.7,3.7,0,0,0,.527-.088,1.037,1.037,0,0,0,.322-.176.5.5,0,0,1,.322-.117,3.438,3.438,0,0,1,.557-.439q.088-.029.088-.205.469.469.322.527t-.146.293a1.853,1.853,0,0,0-.469.322,1.915,1.915,0,0,0-.117.205q-.937.41-1.23.527-.527.293-.615.264a.267.267,0,0,0-.205.029,1.83,1.83,0,0,1-.557.146.119.119,0,0,0-.088-.029q-.7.234-1,.322a.908.908,0,0,1-.7-.146ZM196.7-8.379q-.176-.469-.205-.557t.088-.205a3.484,3.484,0,0,1-.205-1.172,3.1,3.1,0,0,1,.146-.762,3.632,3.632,0,0,1-.234-.7,1.153,1.153,0,0,0,.117-.645,1.106,1.106,0,0,1-.059-.352,1.952,1.952,0,0,0,.088-.586.408.408,0,0,1-.029-.176q0-.527-.117-.527a.52.52,0,0,1-.234-.059,4.276,4.276,0,0,1-.674-.527q-.088-.117-.381-.059-.527-.469-.645-.439a.963.963,0,0,1-.234.029,1.976,1.976,0,0,0-.879-.234q-.41-.234-.469-.146t-.176.029a.516.516,0,0,0-.5-.088,4.632,4.632,0,0,1-.557.146.5.5,0,0,0-.439-.117q-.205.059-.381.117a2.129,2.129,0,0,1-.674.117,1.641,1.641,0,0,0-.615.117,1.442,1.442,0,0,1-.645.234,1.28,1.28,0,0,0-.293.264.423.423,0,0,1-.352.146.468.468,0,0,1-.205.264,1.362,1.362,0,0,0-.264.205,5.824,5.824,0,0,0-.469.908,1.5,1.5,0,0,1-.352.557,1.732,1.732,0,0,0-.293,1.23q-.234,0-.234.264a.4.4,0,0,1-.234.381,7.456,7.456,0,0,0-.234.967.944.944,0,0,1-.352.615,3.178,3.178,0,0,1-.205,1.406,1.062,1.062,0,0,0-.088.82,3.647,3.647,0,0,1-.088.674.232.232,0,0,0-.029.146l.176.645a3.44,3.44,0,0,0,.176.322.591.591,0,0,1,0,.381,1.746,1.746,0,0,0,.615.7.514.514,0,0,1,.264.527,1.2,1.2,0,0,1,.7.527,1.274,1.274,0,0,0,.674.293q.264,0,.264.234a1.355,1.355,0,0,1,.557.117,3.065,3.065,0,0,0,.5.176,1.112,1.112,0,0,1,.527,0,.652.652,0,0,0,.293.059q.469-.059.615-.088a1.646,1.646,0,0,1,.322-.029q.527-.117.732-.176t.264,0a4.388,4.388,0,0,0,.791-.5.84.84,0,0,1,.439-.205q.527-.527.7-.732a1.757,1.757,0,0,1,.352-.322q.645-.586.7-.645a4.715,4.715,0,0,1,.439-.41,1.915,1.915,0,0,1,.205-.117,2.217,2.217,0,0,0,.469-.7q.176-.41.352-.879Zm15.645-21.27.439.176a1.825,1.825,0,0,1,.381.234q.469.352.469.469v.176q.176.293.293.322a.262.262,0,0,1,.176.146,1.939,1.939,0,0,0,.439.557,1.41,1.41,0,0,0,.381.146,1.365,1.365,0,0,0,.674.615q.322.088.615.146a2.649,2.649,0,0,0,.352.234.377.377,0,0,0,.293,0,.959.959,0,0,0,.322.439q.205.146.088.557a1.8,1.8,0,0,0-.293.381.783.783,0,0,1-.41.322l-.937.586q-.41.293-.615.469a1.757,1.757,0,0,0-.322.352.387.387,0,0,0-.41,0,1.479,1.479,0,0,1-.352.176,2.124,2.124,0,0,1-.7,0,1.784,1.784,0,0,0-.645,0,1.629,1.629,0,0,1-.205-.615q.029-.088-.088-.205-.82-.645-1.143-.879t-.732-.527a3.754,3.754,0,0,1-.732-.41,1.582,1.582,0,0,0-.674-.293,1.944,1.944,0,0,0-.205-.41,2.409,2.409,0,0,1-.205-.352q.117-.7.293-.762a3.321,3.321,0,0,0,1.582-1,2.456,2.456,0,0,1,.557-.469.371.371,0,0,0,.205-.176,4.916,4.916,0,0,1,.938-.234A.155.155,0,0,0,212.344-29.648Zm6.27,27.773a.33.33,0,0,1,.029.352.729.729,0,0,0-.029.469,2.556,2.556,0,0,0-.586.381q-.059.088-.293.029a3.348,3.348,0,0,0-.439.5q-.088.146-.381.146l-.586.293a3.382,3.382,0,0,1-.469.352.918.918,0,0,0-.234.176q-.41.176-.674.264a1.1,1.1,0,0,0-.439.264q-.293-.059-.586-.088A.854.854,0,0,1,213.4,1a3.132,3.132,0,0,1-.615.059.894.894,0,0,1-.5-.117q-.41-.527-.5-.527t-.029-.117q-.352-.293-.645-.586-.293-.469-.264-.586T210.645-1q.117-.469.146-.557a.267.267,0,0,0-.029-.205l-.117-1.23a2.29,2.29,0,0,0,.176-.469,1.2,1.2,0,0,0,0-.527,1.764,1.764,0,0,1,0-.7.239.239,0,0,0,.059-.176,1.351,1.351,0,0,1,0-.586.52.52,0,0,0,.059-.234.9.9,0,0,1,0-.469A.52.52,0,0,0,211-6.387a6.66,6.66,0,0,0-.088-1.348.647.647,0,0,1,.205-.645A.721.721,0,0,0,211-8.7a.871.871,0,0,1-.117-.439,3.193,3.193,0,0,1,.059-.674,1.792,1.792,0,0,1,.117-.381,5.863,5.863,0,0,0-.059-.967,3.442,3.442,0,0,1-.059-.615,2.057,2.057,0,0,0-.059-.937,2.135,2.135,0,0,1,.029-.352.473.473,0,0,0-.029-.293,9.1,9.1,0,0,1-.439-1.172.536.536,0,0,0-.5-.41q-.41-.527-.791-.469a3.076,3.076,0,0,0-.674.176q-.7,0-.762.205t-.352.146a.539.539,0,0,0-.176-.439.737.737,0,0,1-.234-.439q.41-.527.469-.469a.169.169,0,0,0,.117.059q.586-.527.82-.527-.117-.352.117-.352t.293-.293a2.384,2.384,0,0,0,.586-.117l.234-.117a1.829,1.829,0,0,0,1.055-.41,6.223,6.223,0,0,0,.879-.059,1.424,1.424,0,0,0,.7-.293,7.927,7.927,0,0,0,.82-.176,2.65,2.65,0,0,1,1.143.645,2.539,2.539,0,0,0,.5.527,2.433,2.433,0,0,1,.264.967.642.642,0,0,0,.088.439q0,.41.117.5a.581.581,0,0,1,.176.205,4.441,4.441,0,0,1-.117.762,1.3,1.3,0,0,0-.059.41,1.988,1.988,0,0,1,.146.762.928.928,0,0,0,.029.41q.059,1,.059,1.113a2.848,2.848,0,0,0,.088.938.384.384,0,0,1-.088.41,3.414,3.414,0,0,1,0,1.26,1.669,1.669,0,0,0,.117,1.084q-.234.293-.176.41l.117.234a1.327,1.327,0,0,1-.088.469.773.773,0,0,0-.029.469,6.719,6.719,0,0,0-.029,1.641q.088.645.146,1.172a1.7,1.7,0,0,0-.029.82q.088.293.205.586a1.9,1.9,0,0,0,.7.82,1.92,1.92,0,0,0,.293.234.722.722,0,0,0,.41.117.677.677,0,0,0,.439-.264q.146-.205.322-.5ZM274.98-44.648a1.552,1.552,0,0,0,.732.117.31.31,0,0,1,.264,0,3.64,3.64,0,0,0,1.23.293.532.532,0,0,0,.381.176,1.2,1.2,0,0,1,.381.059,3.179,3.179,0,0,0,.586.352q.586.176.938.264a2.354,2.354,0,0,1,.645.264,3.832,3.832,0,0,1,.41.234.833.833,0,0,0,.469.117q.879.527,1.523.879l.234.234a.572.572,0,0,0,.41.117.718.718,0,0,0,.527.469q.41.586.469.5t.176.029a2.724,2.724,0,0,1,.41.527.689.689,0,0,0,.645.293,3.672,3.672,0,0,0,.938.7.7.7,0,0,0,.469.469.7.7,0,0,0,.527.469.477.477,0,0,1,.117.352q0,.234.293.176-.117.527.088.586t.146.352a5.34,5.34,0,0,1,.439.5,1.968,1.968,0,0,1,.322.674q.527.527.527.762a1.3,1.3,0,0,0,.059.41,2.282,2.282,0,0,1,.293.82v.41a2.713,2.713,0,0,0,.117.732q.059.088-.059.205a2.677,2.677,0,0,1,.381.82,1.375,1.375,0,0,1-.088.586,1.682,1.682,0,0,0-.205.762.324.324,0,0,1-.205.352.822.822,0,0,1,.029.41,1.022,1.022,0,0,1-.146.469,8.523,8.523,0,0,1-.029.879.441.441,0,0,1-.264.352,3.587,3.587,0,0,0-.293,1.172,1.623,1.623,0,0,1-.439.82.432.432,0,0,0-.205.41q-.117.7-.293.732a.525.525,0,0,0-.293.146,2.3,2.3,0,0,1-.469.527,2.356,2.356,0,0,0-.176.615q0,.146-.234.088-.176.176-.381.352a2.56,2.56,0,0,0-.381.41,1.881,1.881,0,0,1-.322.41q-.088.059-.029.234a5.282,5.282,0,0,1-.645.41.548.548,0,0,0-.293.41q-.586.234-.645.586l-.586.352q-.527.469-.732.469a1.389,1.389,0,0,0-.5.117,1.23,1.23,0,0,1-.615.41.874.874,0,0,0-.557.527q-.469-.059-.557.234t-.557.234a6.7,6.7,0,0,0-.7.381.411.411,0,0,1-.352.029q-.469.176-.527.117a.239.239,0,0,0-.176-.059,1,1,0,0,0-.352.146,1.027,1.027,0,0,1-.293.146,1.043,1.043,0,0,1-.7-.117.525.525,0,0,1-.293.146.525.525,0,0,0-.293.146,4.491,4.491,0,0,0-1.23-.146.833.833,0,0,1-.645-.146q-.527.117-.557.029a.267.267,0,0,0-.146-.146,4.64,4.64,0,0,0-.762-.059,1.441,1.441,0,0,0-.439-.293q-.264-.117-.557-.234a6.241,6.241,0,0,1-.645-.791.807.807,0,0,0-.352-.322l-.41-.762a1.781,1.781,0,0,0-.234-.557.317.317,0,0,1-.117-.146,1.749,1.749,0,0,1-.059-.791,1.749,1.749,0,0,0-.059-.791q.234-.41.205-.5a.649.649,0,0,1-.029-.205q.234-.586.352-.586-.059-.234.059-.293t.117-.352q.293-.352.381-.439a1.782,1.782,0,0,0,.205-.264.282.282,0,0,0,.381-.059,4.121,4.121,0,0,0,.264-.352l.645-.352a2.364,2.364,0,0,1,.7-.322.26.26,0,0,0,.117.029,3.041,3.041,0,0,0,.381-.117.338.338,0,0,1,.322.059.585.585,0,0,1,.146.352,1.138,1.138,0,0,0,.088.352,2.709,2.709,0,0,1-.527.527,5.418,5.418,0,0,0,.117.791,1.593,1.593,0,0,1,.059.439,1.729,1.729,0,0,0,.264,1.084,3.621,3.621,0,0,1,.439.674,2.738,2.738,0,0,1,.322.352l.088.176a.834.834,0,0,1,.5.146.726.726,0,0,0,.557.088,1.948,1.948,0,0,0,.557.41.93.93,0,0,1,.264.059,1.131,1.131,0,0,0,.5.146.267.267,0,0,1,.205.029,3.492,3.492,0,0,0,.557.234,1.593,1.593,0,0,0,.439.059,2.249,2.249,0,0,1,1.025-.234.932.932,0,0,0,.557-.059.924.924,0,0,1,.322-.146.924.924,0,0,0,.322-.146,3.341,3.341,0,0,1,.586-.176.536.536,0,0,0,.41-.352,1.619,1.619,0,0,0,.85-.381.959.959,0,0,1,.439-.322,3.735,3.735,0,0,0,.381-.732.976.976,0,0,1,.557-.557q-.059-.469.059-.527a.918.918,0,0,0,.234-.176,2.115,2.115,0,0,1,.117-.615l.176-.264a2.376,2.376,0,0,1,.293-.615.094.094,0,0,0,.059-.088q-.059-.41.029-.469t-.029-.176a.525.525,0,0,0,.146-.293.525.525,0,0,1,.146-.293,1.029,1.029,0,0,1,0-.5l.176-.439q-.117-.527.029-.557t.088-.205q.059-.293-.059-.322t0-.322q.117-.41.146-.586a.721.721,0,0,0-.029-.352q-.117-.469-.059-.527t0-.234q-.117-1.523-.645-1.816a1.164,1.164,0,0,0-.234-.732,1.639,1.639,0,0,0-.293-.205,2.08,2.08,0,0,0-.439-.967.677.677,0,0,1-.264-.439,2.712,2.712,0,0,0-.352-.586,2.53,2.53,0,0,0-.586-.439q-.117-.029-.059-.205a10.761,10.761,0,0,0-.791-.82,5.709,5.709,0,0,0-.85-.645q-.41-.469-.5-.557a.567.567,0,0,0-.381-.088q-.469-.352-.615-.469a1.028,1.028,0,0,0-.439-.176q-.41-.527-.469-.469a.239.239,0,0,1-.176.059.629.629,0,0,0-.586-.293,1.159,1.159,0,0,0-1.113-.527.689.689,0,0,0-.645-.293.982.982,0,0,0-.352-.205.631.631,0,0,1-.352-.322q-.469-.059-.615-.059a.21.21,0,0,1-.205-.117l-.879-.117a6.819,6.819,0,0,1-1.055-.293,1.182,1.182,0,0,1-.586-.088.411.411,0,0,0-.352-.029,6.693,6.693,0,0,1-1.23.088q-.352-.029-.645-.029a2.289,2.289,0,0,1-1.289-.117,5.006,5.006,0,0,0-.85.176,1.173,1.173,0,0,1-.732,0q-.645.176-.645.234t-.117.059a1.219,1.219,0,0,0-.469.059,1.816,1.816,0,0,1-.352.117,10.149,10.149,0,0,1-1.172.234,3.4,3.4,0,0,1-.879.176.791.791,0,0,1-.5.146.358.358,0,0,0-.322.088,4.365,4.365,0,0,1-.791.41.56.56,0,0,0-.322.234,2.3,2.3,0,0,0-1.2.381,4.327,4.327,0,0,1-1.084.557,3.079,3.079,0,0,0-.674.352.317.317,0,0,1-.146.117q-.527.117-.586.293-.527.293-.615.352a.436.436,0,0,1-.322,0,1.115,1.115,0,0,1-.293.205,3.275,3.275,0,0,0-.352.205q-.527.41-.586.469l-.645.293a.7.7,0,0,0-.469.527.743.743,0,0,0-.352.176,1.92,1.92,0,0,1-.293.234q-.82.527-1.055.7a1.724,1.724,0,0,0-.439.352.7.7,0,0,1-.381.234,3.648,3.648,0,0,1-.469.557,2.409,2.409,0,0,1-.352.205,2.4,2.4,0,0,1-.469.469q-.117.059-.117-.059a3.955,3.955,0,0,1-.586.527,1.816,1.816,0,0,1-.352.117,2.316,2.316,0,0,0-.586.557,1,1,0,0,1-.469.381,3.041,3.041,0,0,1-.117.381q-.059.146-.117.322-.527.176-.5.352t-.205.117a2.328,2.328,0,0,1-.293.352,3.825,3.825,0,0,0-.352.41.735.735,0,0,0-.176.293,1.524,1.524,0,0,0-.059.469,3.438,3.438,0,0,1-.879.82,3.813,3.813,0,0,0-.146.41q-.029.117-.264.234a1.313,1.313,0,0,1-.41,1.055.753.753,0,0,1-.117.615.642.642,0,0,0-.059.615,5.044,5.044,0,0,1-.352.762.833.833,0,0,0-.117.469q-.352.352-.352.5a.364.364,0,0,1-.117.264q-.352.645-.264.7t.029.176a.791.791,0,0,0-.146.5,1.5,1.5,0,0,1-.029.5q-.293.645-.234.791a1.249,1.249,0,0,1,.059.439,1.231,1.231,0,0,0-.088.469.408.408,0,0,1,.029.176,1.612,1.612,0,0,0-.059.7.542.542,0,0,1,0,.352l-.176.879a2.031,2.031,0,0,1,.088.615.649.649,0,0,0-.029.205,2.524,2.524,0,0,0,.029.41,2.135,2.135,0,0,1,.029.352.814.814,0,0,0-.059.5q.059.146-.117.205a.73.73,0,0,1,0,.7.7.7,0,0,1,.234.5,3.3,3.3,0,0,1-.059.586l-.117.645a.861.861,0,0,0,.117.615,2.953,2.953,0,0,1,.029.674.232.232,0,0,0-.029.146,2.091,2.091,0,0,1,.176.527,1.307,1.307,0,0,0,.176.469.7.7,0,0,0-.029.527q.088.293.146.527a2.422,2.422,0,0,0,.029.322.358.358,0,0,1-.088.322q.117.176.234.381a.938.938,0,0,0,.293.322.729.729,0,0,0,.029.469.78.78,0,0,1,.088.352,2.685,2.685,0,0,0,.146.352,1.224,1.224,0,0,1,.088.527q.176.7.41.762a4.114,4.114,0,0,1,.117.7q.352.586.264.645a.264.264,0,0,0-.088.234,2.31,2.31,0,0,0,.586.732,1.279,1.279,0,0,1,.41.439.757.757,0,0,0,.205.7.515.515,0,0,1,.088.645q.469.41.469.527t.117.059a1.1,1.1,0,0,0,.059.645,4.04,4.04,0,0,0,.7.41,2.907,2.907,0,0,0,.352.82l.293.586a1.064,1.064,0,0,0,.234.264,2.2,2.2,0,0,1,.234.205q-.059.352.088.41t.029.234a4.76,4.76,0,0,0,1.23,1,1.621,1.621,0,0,0,.586.557.468.468,0,0,1,.293.381,5.618,5.618,0,0,0,.645.586,3.248,3.248,0,0,1,1.084.879,1.316,1.316,0,0,0,.557.527,1.637,1.637,0,0,0,.381.5.889.889,0,0,0,.264.029,2.724,2.724,0,0,0,.41.527,2.724,2.724,0,0,1,.41.527q.234.352.469.322t.176.146a2.539,2.539,0,0,0,.791.439,2.438,2.438,0,0,1,.615.264.765.765,0,0,0,.439.322q.205.029.205.146a3.248,3.248,0,0,1,1,.557.613.613,0,0,0,.586.146,3.457,3.457,0,0,1,.82.293,1.3,1.3,0,0,0,.41.176,2.93,2.93,0,0,0,.41.293,2.866,2.866,0,0,1,.293.176q.469-.059.527.059a.188.188,0,0,0,.176.117q.82.176,1,.234l.82.234a3.233,3.233,0,0,0,.645.176.585.585,0,0,0,.41.088.472.472,0,0,1,.41.146q.762-.059.762.234a.237.237,0,0,1,.293-.117,1.106,1.106,0,0,0,.352.059q.293,0,.586-.029a2.45,2.45,0,0,1,.645.029,2.345,2.345,0,0,0,.85.059.439.439,0,0,1,.381.059,4.937,4.937,0,0,1,.82-.117,1.926,1.926,0,0,0,.469-.059,1.377,1.377,0,0,0,.645.059l.234-.117a1.443,1.443,0,0,1,.7-.059,2.487,2.487,0,0,0,.762,0,1.867,1.867,0,0,0,.762-.234q.586.059.645.059a2.215,2.215,0,0,1,.674-.088.626.626,0,0,0,.322-.029,3.633,3.633,0,0,0,.82-.234,5.833,5.833,0,0,0,.938-.264.729.729,0,0,1,.469-.029,3.8,3.8,0,0,1,.5-.205q.264-.088.557-.205a4.139,4.139,0,0,0,.762-.293.239.239,0,0,1,.176-.059,3.092,3.092,0,0,0,.5-.322.782.782,0,0,1,.205-.146l1-.5q.293-.146.586-.322a4,4,0,0,0,1.113-.937q.586-.469.586-.615t.176-.088a4.715,4.715,0,0,0,.41-.439.264.264,0,0,1,.234-.088q.293-.469.41-.615a.99.99,0,0,1,.41-.264,2.513,2.513,0,0,1,.732-.5,1.274,1.274,0,0,1,.615-.029q.352.293.029.586a1.526,1.526,0,0,0-.439.645,1.65,1.65,0,0,1-.439.352.386.386,0,0,0-.205.293,1.42,1.42,0,0,0-1,1,.479.479,0,0,0-.381.264,1.217,1.217,0,0,1-.264.381,2.53,2.53,0,0,1-.586.439q-.117.029-.117.264-.645.234-.7.381a.78.78,0,0,1-.176.264q-.527.293-.527.469l-1,.586a1.53,1.53,0,0,1-.322.234.807.807,0,0,0-.322.352q-.645.234-.762.264a1.233,1.233,0,0,1-.293.029.327.327,0,0,0-.322.176,1.115,1.115,0,0,1-.205.293l-.762.352a1.479,1.479,0,0,1-.352.176.735.735,0,0,0-.293.176,2.975,2.975,0,0,1-.7.322.525.525,0,0,0-.293.146q-.527.059-.615.059a.472.472,0,0,0-.205.059,2.9,2.9,0,0,1-.85.469.594.594,0,0,0-.322.117q-.469.117-.645.176a4.4,4.4,0,0,1-.82.029.8.8,0,0,0-.176-.029,1.363,1.363,0,0,0-.352.234l-.293.293a.932.932,0,0,0-.557-.059q-.264.059-.615.117a2.338,2.338,0,0,1-.615-.088.945.945,0,0,0-.615.029.621.621,0,0,0-.41.146,4.121,4.121,0,0,1-.352.264,1.357,1.357,0,0,0-1.172.059.523.523,0,0,0-.381-.117,1.1,1.1,0,0,0-.5.117,1.49,1.49,0,0,0-.615-.146,1.646,1.646,0,0,1-.322.029q-.586-.234-.645-.117a.188.188,0,0,1-.176.117,2.468,2.468,0,0,0-.41-.059.9.9,0,0,0-.352.117.844.844,0,0,0-.791-.205.844.844,0,0,1-.791-.205,1.746,1.746,0,0,1-.527.029q-.176-.029-.234-.264A8.17,8.17,0,0,1,260.361,16a1.193,1.193,0,0,1-.674-.352,1.707,1.707,0,0,1-.82-.205.92.92,0,0,0-.586-.146q-.117-.117-.264-.293t-.264-.293a1.274,1.274,0,0,1-.7-.059,1.461,1.461,0,0,0-.645-.117,1.178,1.178,0,0,0-.586-.352,1.38,1.38,0,0,1-.586-.293,7.672,7.672,0,0,0-.732-.439.368.368,0,0,1-.146-.088q-.176-.117-.381-.234a1.655,1.655,0,0,0-.5-.176q-.117-.176-.234-.322a.678.678,0,0,0-.41-.205q-.469-.527-.557-.439a.162.162,0,0,1-.205.029.628.628,0,0,0-.381-.322.628.628,0,0,1-.381-.322,1.853,1.853,0,0,1-.469-.322,1.148,1.148,0,0,1-.117-.264,1.142,1.142,0,0,1-.557-.381,1.15,1.15,0,0,0-.615-.381q-.293-.41-.381-.557a1.362,1.362,0,0,0-.205-.264,2.913,2.913,0,0,0-.674-.615.844.844,0,0,1-.381-.439q-.41-.293-.527-.381a2.2,2.2,0,0,1-.234-.205,3.623,3.623,0,0,1-.381-.41.459.459,0,0,0-.088-.117q-.469-.41-.557-.469t-.029-.176a.938.938,0,0,1-.41-.5.706.706,0,0,0-.41-.439.551.551,0,0,0-.146-.352q-.146-.176-.264-.293a.735.735,0,0,1-.176-.293.735.735,0,0,0-.176-.293q-.352-.293-.381-.41a.371.371,0,0,0-.088-.176,3.638,3.638,0,0,0-.322-.439l-.205-.205q-.117-.293-.234-.527a1.836,1.836,0,0,0-.352-.469,1.893,1.893,0,0,0-.469-1.055q-.234-.645-.469-.762.117-.176.029-.293a2.409,2.409,0,0,1-.205-.352,3.127,3.127,0,0,0-.322-1.055q-.146-.176-.322-.352a1.064,1.064,0,0,0-.352-.762q.117-.586-.234-.762l-.117-.762a3.991,3.991,0,0,1-.205-.85.779.779,0,0,0-.205-.5,4.114,4.114,0,0,1-.117-.7.944.944,0,0,0-.117-.41.676.676,0,0,1-.146-.41.331.331,0,0,0-.029-.234l-.117-.879q-.117-.645-.059-.645a1.394,1.394,0,0,0-.088-.381,1.394,1.394,0,0,1-.088-.381q0-.117.029-.41t.029-.586a.86.86,0,0,0-.059-.322.86.86,0,0,1-.059-.322,4.009,4.009,0,0,0,.029-.791,1,1,0,0,1,.088-.5.941.941,0,0,1-.088-.7,4.5,4.5,0,0,0,.088-.937,1.7,1.7,0,0,1,0-.645,1.3,1.3,0,0,0,.059-.41v-.7a2.948,2.948,0,0,1,.029-1.025.5.5,0,0,0-.029-.439.527.527,0,0,0,.176-.469,4.27,4.27,0,0,1,.059-.7,3.453,3.453,0,0,0,.264-.967,2.282,2.282,0,0,1,.146-.674,2.685,2.685,0,0,1,.146-.352.78.78,0,0,0,.088-.352,2.687,2.687,0,0,0,.234-.82,4.582,4.582,0,0,0,.264-.674,1.358,1.358,0,0,0,.029-.264,3.45,3.45,0,0,1,.264-.82,1.539,1.539,0,0,0,.146-.234q.117-.586.059-.615t0-.146a.935.935,0,0,1,.41-.527.743.743,0,0,1,.176-.352.572.572,0,0,0,.117-.41l.352-.645a.437.437,0,0,0,.41-.322q.059-.264.117-.557a2.392,2.392,0,0,1,.5-.352q.146-.059.088-.352a7.135,7.135,0,0,0,.527-.586,2,2,0,0,0,.352-.82q.352-.117.41-.293t.352-.117a5.282,5.282,0,0,0,.41-.645,2.092,2.092,0,0,1,.586-.586,1.138,1.138,0,0,0,.469-.7,1.766,1.766,0,0,1,.762-.527,3.289,3.289,0,0,1,.527-.469,1.115,1.115,0,0,0,.205-.293,3.275,3.275,0,0,1,.205-.352q.41-.059.7-.7a.789.789,0,0,0,.527-.293,1.05,1.05,0,0,1,.527-.352.446.446,0,0,1,.264-.322.446.446,0,0,0,.264-.322q.82-.293.908-.469a.384.384,0,0,1,.381-.176,1.393,1.393,0,0,0,.381-.5q.029-.146.322-.146a4.135,4.135,0,0,1,.293-.41.239.239,0,0,1,.176-.059,2.569,2.569,0,0,0,.5-.381,1.4,1.4,0,0,1,.557-.322,6.174,6.174,0,0,0,.527-.352,2.053,2.053,0,0,1,.586-.293l.5-.5a.678.678,0,0,0,.088-.146,3.408,3.408,0,0,0,.879-.586,2.33,2.33,0,0,1,.732-.381.229.229,0,0,0,.205-.264.946.946,0,0,0,.908-.205,1.518,1.518,0,0,1,.967-.381,3.307,3.307,0,0,1,.7-.527,1.472,1.472,0,0,1,.469-.205.435.435,0,0,0,.293-.205.872.872,0,0,0,.557-.234.5.5,0,0,1,.5-.117,6.408,6.408,0,0,1,1.172-.5,4.9,4.9,0,0,0,1.113-.5,1.812,1.812,0,0,0,.82-.176,1.4,1.4,0,0,1,.674-.146.875.875,0,0,0,.5-.088,1.289,1.289,0,0,0,.439-.205.511.511,0,0,1,.439-.088,2.525,2.525,0,0,1,.938-.117,2.272,2.272,0,0,0,.293-.117,2.865,2.865,0,0,0,.293-.176,1.125,1.125,0,0,0,.762-.029.829.829,0,0,1,.645-.029,2.832,2.832,0,0,0,.557-.117q.146-.059.205.059a.279.279,0,0,1,.264-.088.623.623,0,0,0,.381-.088.4.4,0,0,0,.41.146,1.971,1.971,0,0,1,.586.029q.586.176.586.088t.117-.146a.68.68,0,0,1,.557,0,.555.555,0,0,0,.5,0Zm21.68,4.8a1.057,1.057,0,0,1,.205.557q-.029.146.205.146a1.177,1.177,0,0,0-.205.879,7.147,7.147,0,0,0,.205.762q-.117.7-.176.7t-.059.117q.234.469.176.586a.45.45,0,0,0-.059.176.729.729,0,0,0,0,.41.453.453,0,0,1-.117.41,2.661,2.661,0,0,1,.088.732.274.274,0,0,1-.146.205q.059.469.088.615t-.146.264a6.116,6.116,0,0,1,.117.85,2.607,2.607,0,0,1-.059.5,5.3,5.3,0,0,0,.029.7.681.681,0,0,1-.088.41q.176.527.117.557a.317.317,0,0,0-.117.146.317.317,0,0,1,.088.293,2.314,2.314,0,0,1-.088.352,4.463,4.463,0,0,1-.029,1.2q-.088.381-.146.791a1.186,1.186,0,0,1,0,.557.624.624,0,0,0-.059.322,1.793,1.793,0,0,1,.029.527q-.029,0-.088.117-.059.352.059.381t0,.264q-.293.527-.117.557t.117.205a3.135,3.135,0,0,1-.088.762,1.028,1.028,0,0,0,.029.645,5.38,5.38,0,0,0-.029.908.523.523,0,0,1-.146.381q.176.586.088.586t-.088.176a1.5,1.5,0,0,1-.176,1.172,7.688,7.688,0,0,1,.117.879v.586q-.117.586-.146.7a1.145,1.145,0,0,1-.088.234,2.521,2.521,0,0,1,.059.469.944.944,0,0,0,.117.41,2.236,2.236,0,0,0-.029.586.8.8,0,0,1,.029.176,2.2,2.2,0,0,0-.059.82.729.729,0,0,1,0,.41,2.316,2.316,0,0,0-.088.7,2.524,2.524,0,0,1,.029.41,1.593,1.593,0,0,1-.059.439.37.37,0,0,0,.117.381.634.634,0,0,0-.176.469,3.945,3.945,0,0,0,.059.645q-.117.586.059.645a.9.9,0,0,0-.146.762q.088.469-.205.586.234.41,0,.645a1.417,1.417,0,0,0,.059.586.682.682,0,0,1,.117.176q.059.645,0,.674t-.059.146a1.521,1.521,0,0,1,0,.615.72.72,0,0,0-.059.264,1.52,1.52,0,0,1-.029.732.871.871,0,0,0-.088.439,4.041,4.041,0,0,0,.029.586.317.317,0,0,1-.088.293q.117.82,0,.938t0,.293a6.694,6.694,0,0,0-.088,1.23,2.831,2.831,0,0,1-.029.7,5.1,5.1,0,0,1-.088.615.649.649,0,0,0-.029.205,1.57,1.57,0,0,1,.088.527.26.26,0,0,0-.029.117A4.4,4.4,0,0,1,295.4,1a1.233,1.233,0,0,0-.029.293.615.615,0,0,0,.088.322.615.615,0,0,1,.088.322.669.669,0,0,0,.029.469.162.162,0,0,1-.029.234q.41.586.381.645a.208.208,0,0,0,.029.176,1.479,1.479,0,0,0,.176.352,2.866,2.866,0,0,1,.176.293,1.236,1.236,0,0,0,.322.645,1.181,1.181,0,0,1,.322.469,1.31,1.31,0,0,1,.762.586,2.6,2.6,0,0,1,.82.117,1.857,1.857,0,0,0,.82.059,2.681,2.681,0,0,1,1.348-.41,2.679,2.679,0,0,1-.117.439,1.249,1.249,0,0,0-.059.439,5.1,5.1,0,0,0-.527.146.317.317,0,0,0-.117.146,1.363,1.363,0,0,0-.352.234l-.234.234a1.183,1.183,0,0,0-.82.264.379.379,0,0,1-.586-.029.8.8,0,0,0-.469.264.378.378,0,0,1-.469.088q-.586.352-.7.234a1.255,1.255,0,0,1-1.084.234,2.212,2.212,0,0,1-1.084-.469,4.422,4.422,0,0,1-.82-.322q-.117-.088-.293-.205-.059-.352-.146-.41a1.42,1.42,0,0,1-.205-.176q-.41-.352-.41-.5t-.117-.088q-.117-.527-.234-.586t0-.293a.946.946,0,0,1-.293-.879,6.417,6.417,0,0,1-.293-.674,1.914,1.914,0,0,1-.059-.85.966.966,0,0,0,0-.5.361.361,0,0,1-.059-.205,3.133,3.133,0,0,0,0-.879A2.178,2.178,0,0,1,291.094.7V.293a2.981,2.981,0,0,1,.059-.586,3.809,3.809,0,0,0,.117-1.26,1.652,1.652,0,0,1,.059-.791.729.729,0,0,0,0-.41.407.407,0,0,1,.117-.41,4.2,4.2,0,0,0-.088-.645.26.26,0,0,1-.029-.117q.059-.7.088-1.494t.029-1.611q-.059-.41,0-.469a.239.239,0,0,0,.059-.176,3.683,3.683,0,0,0-.059-.586,2.124,2.124,0,0,1,0-.7,1.1,1.1,0,0,1,.088-.439,1.1,1.1,0,0,0,.088-.439,2.445,2.445,0,0,1-.029-.615,1.358,1.358,0,0,0,.029-.264q-.059-.586,0-.615a.094.094,0,0,0,.059-.088,5.927,5.927,0,0,1,.029-.791.43.43,0,0,0-.088-.322,2.273,2.273,0,0,0,.117-.293,1.106,1.106,0,0,0,.059-.352q-.176-.645-.088-.7a.442.442,0,0,0,.146-.176.8.8,0,0,1-.059-.557,1.271,1.271,0,0,0-.059-.674,2.171,2.171,0,0,0,.146-.7.385.385,0,0,1,.088-.293,3.953,3.953,0,0,1-.088-.469,2.568,2.568,0,0,1,.029-.645,2.185,2.185,0,0,0,.117-1.172.669.669,0,0,1,.176-.7,2.4,2.4,0,0,1-.146-1.172,7.361,7.361,0,0,0,.088-1.289,2.652,2.652,0,0,0,.088-.791,5.045,5.045,0,0,1-.029-.557,2.981,2.981,0,0,1,.059-.586,1.013,1.013,0,0,0-.059-.586.72.72,0,0,0,.146-.439q.029-.322.029-.557a.925.925,0,0,1-.088-.469,1.841,1.841,0,0,0,.029-.293q.117-.762.176-1.025a2.56,2.56,0,0,0,.059-.557q-.059-.762-.059-1.289a9.543,9.543,0,0,1,.059-1.055,2.849,2.849,0,0,0,.088-.7.408.408,0,0,1-.029-.176,4.784,4.784,0,0,1,.088-.7.208.208,0,0,0-.029-.176,4.357,4.357,0,0,1-.029-.82,2.135,2.135,0,0,0,.029-.352.994.994,0,0,1-.088-.439.649.649,0,0,0,.029-.205,3.232,3.232,0,0,0,.029-.7.408.408,0,0,1-.029-.176,4.524,4.524,0,0,1,.029-.7.963.963,0,0,0,.029-.234q-.117-.469-.146-.674a3.111,3.111,0,0,1-.029-.439,3.746,3.746,0,0,0,.029-.762.681.681,0,0,1,.088-.41q-.059-1.172-.146-1.729a4.456,4.456,0,0,1-.029-1.143,2.361,2.361,0,0,0-.234-.7.387.387,0,0,1-.059-.352q.117-.293-.293-.791a3.07,3.07,0,0,0-.7-.674.563.563,0,0,1-.41.059,1.817,1.817,0,0,0-.352-.117q-.234.41-.381.381a1.358,1.358,0,0,0-.264-.029q-.645.352-.645.469a2.614,2.614,0,0,1-.762.5.435.435,0,0,0-.293.205q-.879.176-.879.469a.474.474,0,0,0-.381-.059,1.04,1.04,0,0,1-.381.059,1.362,1.362,0,0,1-.205-.264.468.468,0,0,0-.264-.205q.117-.234,0-.322t-.059-.381q.7-.41.908-.557t.5-.322a2.065,2.065,0,0,1,.469-.41.169.169,0,0,0,.117-.059,5.612,5.612,0,0,0,1.113-.879q.527,0,.645-.352a.973.973,0,0,1,.762-.117,5.734,5.734,0,0,1,.586-.352q1.113-.293,1.289-.82.352,0,.645-.029t.586-.029a.844.844,0,0,1,.645-.117,2.182,2.182,0,0,0,.762.352q.352.352.469.352a.52.52,0,0,1,.234.059q.117.117.293.264a1.165,1.165,0,0,1,.293.381,3.618,3.618,0,0,1,.264,1.143,1.811,1.811,0,0,0,.029.557q.234.586.176.7a.52.52,0,0,0-.059.234,7.615,7.615,0,0,0,.117,1,1.926,1.926,0,0,1,.059.469,1.2,1.2,0,0,0,.029.586Q296.895-39.9,296.66-39.844ZM317.813-3.105a1.944,1.944,0,0,0-.41.205.533.533,0,0,1-.41.029.888.888,0,0,1-.469.322.614.614,0,0,0-.41.381,10.833,10.833,0,0,0-1.348.527q-1.055.469-1.436.645t-.732.352a1.07,1.07,0,0,0-.791.059,4.609,4.609,0,0,0-.557.352,4.761,4.761,0,0,1-1.055,0,7.937,7.937,0,0,0-.82-.059,5.4,5.4,0,0,0-.732-.117q-.146,0-.146-.117a.528.528,0,0,1-.352,0,.652.652,0,0,0-.293-.059,3.164,3.164,0,0,0-.762-.381.525.525,0,0,1-.293-.146q0-.059-.264-.117a.4.4,0,0,0-.381.059l-.82-.527q-.527-.7-.7-.7-.469-.469-.469-.7a.743.743,0,0,1-.352-.176.743.743,0,0,0-.352-.176,1.435,1.435,0,0,0-.059-.557,1.245,1.245,0,0,1-.117-.381l-.352-.762a.984.984,0,0,0-.176-.381,1.537,1.537,0,0,1-.176-.264,1.358,1.358,0,0,1,.029-.264.9.9,0,0,0-.029-.381,1.26,1.26,0,0,1-.234-.7,3.077,3.077,0,0,0-.176-.7,1.268,1.268,0,0,1-.029-.469.637.637,0,0,0-.029-.352,2.818,2.818,0,0,1-.176-.557q0-.088.117-.146-.176-.117-.059-.41t-.117-.41a.634.634,0,0,0,.176-.586,1.182,1.182,0,0,1,.059-.645,5.8,5.8,0,0,0,.293-.879,4.218,4.218,0,0,1,.264-.732q.088-.146.146-.264a2.816,2.816,0,0,1,.176-.615.361.361,0,0,0,.059-.205,2.392,2.392,0,0,1,.469-1.025,1.4,1.4,0,0,0,.352-.791.448.448,0,0,0,.322-.322.628.628,0,0,1,.322-.381.894.894,0,0,1,.381-.5.446.446,0,0,0,.264-.322.8.8,0,0,0,.5-.234,2.115,2.115,0,0,0,.264-.41.994.994,0,0,0,.557-.264.994.994,0,0,1,.557-.264.817.817,0,0,1,.5-.615,1.424,1.424,0,0,0,.615-.439.541.541,0,0,0,.586-.352,1.9,1.9,0,0,0,1-.352,1.561,1.561,0,0,1,.527-.352,1.331,1.331,0,0,0,.527-.146,1,1,0,0,1,.352-.146q.527-.469.557-.322t.146.029a1.724,1.724,0,0,0,.439-.176,1.655,1.655,0,0,1,.5-.176q.527-.059.674-.088a2.708,2.708,0,0,0,.322-.088,3.982,3.982,0,0,1,1.113-.059,6.082,6.082,0,0,0,.762.234,1.8,1.8,0,0,0,.762.059,1.115,1.115,0,0,0,.293.205.682.682,0,0,1,.293.322,3.236,3.236,0,0,1,.7.586.885.885,0,0,0,.352.293,8.275,8.275,0,0,1,.557,1.084,5.8,5.8,0,0,0,.381.791q-.176.469-.117.5t.059.146a1.257,1.257,0,0,1-.059.322,1.392,1.392,0,0,0-.059.381,2.458,2.458,0,0,1,0,.762,2.981,2.981,0,0,0-.059.586,3.494,3.494,0,0,1-1.025,1.055,1.567,1.567,0,0,0-.674.7q-.527.176-.5.293a.142.142,0,0,1-.088.176,2.529,2.529,0,0,0-.527.381.361.361,0,0,0-.059.205,3.5,3.5,0,0,1-.879.41,1.591,1.591,0,0,0-.645.381,1.3,1.3,0,0,1-.41.322,1.293,1.293,0,0,1-.439.176.692.692,0,0,0-.439.352,1,1,0,0,0-.82.527,7.522,7.522,0,0,1-.879-.029,1.841,1.841,0,0,0-.293-.029q-.645.352-.645.293t-.059,0a.729.729,0,0,1-.41,0q-.234-.059-.527-.117a.46.46,0,0,0-.352.029,1.123,1.123,0,0,1-.352.088.676.676,0,0,1-.586-.146.752.752,0,0,0-.7-.088q-.176-.117-.322-.234a.335.335,0,0,0-.381,0,.882.882,0,0,0-.088.41q-.029.352.205.234a1.048,1.048,0,0,0-.234.674.75.75,0,0,0,.293.615,1.357,1.357,0,0,0,.146,1.143,2.41,2.41,0,0,1,.381,1.084,2.454,2.454,0,0,0,.674.732,1.508,1.508,0,0,1,.557.732,8.443,8.443,0,0,1,.908.527q.439.293.908.645.352.117.557.205a1.1,1.1,0,0,0,.439.088,1.33,1.33,0,0,0,.762.41q.7.234.82.293a.52.52,0,0,0,.234.059,4.587,4.587,0,0,0,.645.117,5.64,5.64,0,0,1,.85-.176.594.594,0,0,0,.322-.117,3.329,3.329,0,0,1,.7-.439,1.139,1.139,0,0,0,.41-.264,2.045,2.045,0,0,0,.5-.439.267.267,0,0,1,.146-.146,3.771,3.771,0,0,0,.41-.645.46.46,0,0,0,.322-.234,1.115,1.115,0,0,1,.205-.293,2.031,2.031,0,0,1,.439-.439,1.607,1.607,0,0,0,.205-.088,3.976,3.976,0,0,1,.381-.674,1.782,1.782,0,0,1,.264-.205,6.183,6.183,0,0,0,1-.645.7.7,0,0,0,.7-.117.454.454,0,0,1,.527-.117q.117.527.117.586a.169.169,0,0,0,.059.117q-.059.176-.352.205t-.234.322q-.293.7-.381.938a.916.916,0,0,1-.322.41.789.789,0,0,1-.645.645,2.514,2.514,0,0,0-.469.586q-.527.117-.586.469Zm-8.906-10.605q.234.059.586.176a1.272,1.272,0,0,1,.469.234,2.45,2.45,0,0,1,.645-.029,3.7,3.7,0,0,1,.527.088,1.727,1.727,0,0,0,.938,0,.722.722,0,0,1,.41-.117q.645.059.674-.029a.267.267,0,0,1,.146-.146,5.792,5.792,0,0,1,1.055-.7.615.615,0,0,1,.088-.322,1.619,1.619,0,0,0,.146-.322,2.3,2.3,0,0,0-.059-.5,2.3,2.3,0,0,1-.059-.5,1.4,1.4,0,0,0-.117-.732.251.251,0,0,1,0-.322,1.78,1.78,0,0,0-.5-.586.432.432,0,0,1-.205-.41,1.668,1.668,0,0,0-.352-.293.236.236,0,0,1-.117-.234,2.7,2.7,0,0,0-1.465-.469,2.672,2.672,0,0,1-.645.029q0-.029-.059-.029a1.931,1.931,0,0,1-.732.205.43.43,0,0,0-.322.088,4.5,4.5,0,0,1-.674.732.959.959,0,0,0-.322.439,8.559,8.559,0,0,1-.791.879q-.264.234-.146.469-.176.762-.029.938a.349.349,0,0,1,.029.41q.234.234.469.5A3.711,3.711,0,0,1,308.906-13.711Zm15.762-1.816a4.866,4.866,0,0,1,.264-.557.844.844,0,0,1,.439-.381.589.589,0,0,1,.293-.469.589.589,0,0,0,.293-.469,1.409,1.409,0,0,0,.586-.586,2.779,2.779,0,0,1,.527-.322q0,.029.117.029a3.457,3.457,0,0,0,.645-.586,1.046,1.046,0,0,1,.293-.293,2.916,2.916,0,0,0,.527-.352l.234-.234a2.327,2.327,0,0,1,.557-.234.472.472,0,0,0,.205-.059q.586-.41.7-.469a.377.377,0,0,0,.176-.234,7.533,7.533,0,0,0,1.641-.586,1.536,1.536,0,0,1,.586-.088.721.721,0,0,0,.352-.029,2.617,2.617,0,0,1,1.143,0,1.355,1.355,0,0,0,.557.117q.469,0,.586.146a.361.361,0,0,0,.293.146,1.526,1.526,0,0,0,.381.791,1.414,1.414,0,0,0,.615.205q.7.469.7.645a3.754,3.754,0,0,1,.732.41,1.482,1.482,0,0,1,.5.7,4.121,4.121,0,0,1,.586.41.735.735,0,0,1,.176.293,3.5,3.5,0,0,1,.615.82.7.7,0,0,0,.264.352q.117.469.176.85a2.156,2.156,0,0,1-.059.85,1.633,1.633,0,0,1-.352,1.523q-.117.7,0,.732t.059.146q-.117.41-.176.586l-.117.352q-.176.586-.117.674a.193.193,0,0,1,0,.205q-.41.586-.469.7a.652.652,0,0,0-.059.293q-.586.352-.557.41a.857.857,0,0,1,.029.293,3.4,3.4,0,0,0-.557.791q-.029.146-.264.205a4.656,4.656,0,0,1-.586.7q-.527.352-.674.439a.288.288,0,0,0-.146.264,1.877,1.877,0,0,0-.41.41l-.117.234q-.586.176-.586.234a.052.052,0,0,1-.059.059,2.559,2.559,0,0,0-.674.381,2.108,2.108,0,0,1-.322.264.858.858,0,0,0-.586.205,1.823,1.823,0,0,1-.527.322,1.479,1.479,0,0,1-.352.176.565.565,0,0,0-.293.234,7.13,7.13,0,0,0-1.523.645,1.483,1.483,0,0,1-1.289.117,2.113,2.113,0,0,1-.82.117.682.682,0,0,0-.176-.117,2.3,2.3,0,0,1-.7.234,1.351,1.351,0,0,1-.469-.117,3.412,3.412,0,0,0-.82-.176,8.416,8.416,0,0,0-.791-.439,2.362,2.362,0,0,1-.381-.205q-.176-.117-.381-.264a.5.5,0,0,1-.205-.439l-.469-.469q-.293-.762-.527-.82a1.708,1.708,0,0,0-.234-.7,3.72,3.72,0,0,0-.205-.5.727.727,0,0,1-.088-.205,2.005,2.005,0,0,0-.059-.381,2.1,2.1,0,0,1-.059-.439,9.135,9.135,0,0,1-.146-1.641,3.058,3.058,0,0,0-.088-.937.279.279,0,0,0,.088-.264,1.217,1.217,0,0,1,.029-.439,2.115,2.115,0,0,1,.117-.615.361.361,0,0,0,.059-.205,4.122,4.122,0,0,1,.234-1,1.619,1.619,0,0,1,.146-.322.492.492,0,0,0,.029-.381.8.8,0,0,0,.439-.557,2.31,2.31,0,0,1,.264-.674Zm8.613-1.523a1.292,1.292,0,0,1-.41-.264.442.442,0,0,0-.176-.146q-.645-.176-.732-.088a.162.162,0,0,1-.205.029,1.567,1.567,0,0,1-.586-.117.348.348,0,0,0-.469.176,1.764,1.764,0,0,1-.7,0,1.352,1.352,0,0,1-.381.176.729.729,0,0,0-.322.176,1.363,1.363,0,0,1-.293.439.214.214,0,0,0-.059.264,5.851,5.851,0,0,1-.527.586,3.889,3.889,0,0,1-.352,1.2,1.77,1.77,0,0,1-.41.439,2.137,2.137,0,0,1,.029.615.779.779,0,0,1-.205.5,2.181,2.181,0,0,0-.146,1.025.628.628,0,0,1,.029.439q-.234.762-.059.732t.117.146q0,.645.088.674a.135.135,0,0,1,.088.146l.176.7q.234.469.176.527a.239.239,0,0,0-.059.176q.352.527.439.645a2.2,2.2,0,0,0,.205.234,1.212,1.212,0,0,0,.146.557q.088.088-.029.205.293.059.5.117a.531.531,0,0,1,.322.352q.469.117.527.41a4.7,4.7,0,0,0,1.23.205,5.586,5.586,0,0,0,.762-.146,2.653,2.653,0,0,0,1.172-.088.871.871,0,0,0,.41-.381,3.8,3.8,0,0,1,.352-.322,2.2,2.2,0,0,0,.234-.205,6.479,6.479,0,0,1,.5-.791.757.757,0,0,0,.146-.615,3.669,3.669,0,0,0,.879-2.4q.234-.7.176-.791a.361.361,0,0,1-.059-.205,1.125,1.125,0,0,0,.146-.85,6.049,6.049,0,0,0-.205-.85,2.939,2.939,0,0,1-.088-.732.482.482,0,0,0,.029-.146q-.41-.586-.469-.645a3.3,3.3,0,0,0-.527-.82,2.23,2.23,0,0,1-.41-.586q-.352-.293-.41-.352a.682.682,0,0,1-.117-.176Z" transform="translate(149 117)" fill="#5a4d49"/></g></svg>